/* XPM */
static char * big_add_files_xpm[] = {
"48 48 201 2",
"  	c None",
". 	c #020202",
"+ 	c #0E0E0E",
"@ 	c #0ED256",
"# 	c #8A8A86",
"$ 	c #AEAEAA",
"% 	c #060606",
"& 	c #027202",
"* 	c #56F69A",
"= 	c #A6C6E2",
"- 	c #028A16",
"; 	c #5AF69E",
"> 	c #2E2E2E",
", 	c #DADADA",
"' 	c #E6E6E6",
") 	c #525252",
"! 	c #02961E",
"~ 	c #06B642",
"{ 	c #EAEAEA",
"] 	c #666666",
"^ 	c #A6A6A2",
"/ 	c #22EA72",
"( 	c #EEEEEE",
"_ 	c #F2F2F2",
": 	c #727272",
"< 	c #9E9E9A",
"[ 	c #0ACE56",
"} 	c #3EEE8A",
"| 	c #96B6D6",
"1 	c #F6F6F6",
"2 	c #92928E",
"3 	c #06A636",
"4 	c #CACACA",
"5 	c #363636",
"6 	c #02860E",
"7 	c #06CA5A",
"8 	c #FEFEFA",
"9 	c #7E7E7A",
"0 	c #0ED662",
"a 	c #121212",
"b 	c #BEBEBA",
"c 	c #3A3A3A",
"d 	c #02C656",
"e 	c #DEDEDE",
"f 	c #1A1A1A",
"g 	c #D6D6D6",
"h 	c #2AEA7E",
"i 	c #829AB2",
"j 	c #0EE262",
"k 	c #36EA86",
"l 	c #B6B6B2",
"m 	c #FAFAFA",
"n 	c #42EE8A",
"o 	c #02BA32",
"p 	c #424242",
"q 	c #C2C2C2",
"r 	c #1E1E1E",
"s 	c #027A02",
"t 	c #D6E2EA",
"u 	c #828282",
"v 	c #969696",
"w 	c #464646",
"x 	c #02B22E",
"y 	c #46F292",
"z 	c #D2D2D2",
"A 	c #2A2A2A",
"B 	c #5E5E5E",
"C 	c #06BA46",
"D 	c #9A9A96",
"E 	c #6E86A2",
"F 	c #928E8E",
"G 	c #BABAB6",
"H 	c #02AA3A",
"I 	c #4A4A4A",
"J 	c #6A6A66",
"K 	c #02BE52",
"L 	c #12EA66",
"M 	c #0AAE36",
"N 	c #B2B2AE",
"O 	c #0AD662",
"P 	c #8E8E8A",
"Q 	c #1AEE76",
"R 	c #029E26",
"S 	c #7E7A7A",
"T 	c #AAAAA6",
"U 	c #4EF296",
"V 	c #028E1A",
"W 	c #222222",
"X 	c #A2A29E",
"Y 	c #028212",
"Z 	c #868682",
"` 	c #02AE3A",
" .	c #E2E2E2",
"..	c #C6C6C6",
"+.	c #02B246",
"@.	c #7A7A76",
"#.	c #0AC24A",
"$.	c #CECECA",
"%.	c #5A5A56",
"&.	c #027602",
"*.	c #6A6E72",
"=.	c #BAB6B6",
"-.	c #060A0A",
";.	c #02C256",
">.	c #3AEE86",
",.	c #9A9696",
"'.	c #027E06",
").	c #02921A",
"!.	c #969292",
"~.	c #565652",
"{.	c #4E4E4A",
"].	c #52F29A",
"^.	c #02BA4A",
"/.	c #262626",
"(.	c #9E9A9A",
"_.	c #AEAAAA",
":.	c #02AE3E",
"<.	c #06CE5E",
"[.	c #A29E9E",
"}.	c #26EA7E",
"|.	c #12E66E",
"1.	c #16CE62",
"2.	c #DEDADA",
"3.	c #16D666",
"4.	c #E2DEDE",
"5.	c #D6D2D2",
"6.	c #BEBABA",
"7.	c #06BE4E",
"8.	c #B6B2B2",
"9.	c #06B242",
"0.	c #726E6E",
"a.	c #16EA72",
"b.	c #767672",
"c.	c #9A9A9A",
"d.	c #8A8686",
"e.	c #02B64A",
"f.	c #06C652",
"g.	c #A6A2A2",
"h.	c #6E6A6A",
"i.	c #06C656",
"j.	c #0EEA6E",
"k.	c #6A6666",
"l.	c #8E8E8E",
"m.	c #323232",
"n.	c #029E2A",
"o.	c #02BA52",
"p.	c #02AE46",
"q.	c #3AEE8A",
"r.	c #8E8A8A",
"s.	c #B2AEAE",
"t.	c #2EEA7E",
"u.	c #C6C2C2",
"v.	c #CAC6C6",
"w.	c #0A0A0A",
"x.	c #0ACE5A",
"y.	c #0AD256",
"z.	c #42F28E",
"A.	c #62625E",
"B.	c #929292",
"C.	c #B2B2B2",
"D.	c #9E9E9E",
"E.	c #CECACA",
"F.	c #6E6E6A",
"G.	c #FEFEFE",
"H.	c #BABABA",
"I.	c #AAAAAA",
"J.	c #565252",
"K.	c #1EEE76",
"L.	c #069E26",
"M.	c #06C252",
"N.	c #12EA6E",
"O.	c #027A06",
"P.	c #6A6A6A",
"Q.	c #06CA5E",
"R.	c #565656",
"S.	c #767676",
"T.	c #8A8A8A",
"U.	c #AEAEAE",
"V.	c #E6E6EA",
"W.	c #A6A6A6",
"X.	c #028612",
"Y.	c #7E7E7E",
"Z.	c #BEBEBE",
"`.	c #B6B6B6",
" +	c #02BE56",
".+	c #A2A2A2",
"++	c #868686",
"@+	c #7A7A7A",
"#+	c #CECECE",
"$+	c #06C65A",
"%+	c #4E4E4E",
"&+	c #02B64E",
"*+	c #029E2E",
"=+	c #029622",
"-+	c #0AD666",
";+	c #027E0A",
">+	c #02921E",
",+	c #6E6E6E",
"'+	c #02C65A",
")+	c #0EE266",
"!+	c #06B246",
"                                                                                                ",
"                                                                                                ",
"                                                                                                ",
"      g.`.U.U.U.U.U.U.U.I..+D.c.v v v v B.T.@+J.`.                                              ",
"      U.{  . . . . . . . . . . . .4. . . .{ v (.%.C.Z.                                          ",
"      C. .m m m m m m m m m m m m 8 m m m m v `.r.B I.Z.                                        ",
"      C. .m G.G.G.G.G.G.G.8 8 G.m G.G.G.G.8 c.z l !.h.I.Z.                                      ",
"      C. .m m m m m 8 m m m m m G.G.G.m m m ^ e #+N B.0.W.Z.                                    ",
"      8. .m G.m m m G.G.G.G.G.G.G.G.G.G.G.m .+'  .$.U.F h.W.Z.                                  ",
"      `. .m m G.G.m m m m G.G.G.m G.G.m m m ^ { _  ...N ++k.W.Z.                                ",
"      H. .1 m m G.G.G.G.m m m G.m G.G.m G.m I.( 1 _ , q I.S k.W.Z.                              ",
"      =. .m m m m m m m ( ( ( ( ( 1 G.G.m m I.{ m 1 (  .#+N # ,+I.Z.                            ",
"      G  .1 m m m G.G.v.B ) %+) ] c.q m m _ D.T.l.l.u 9 : ) p 5 l.`.Z.                          ",
"      8. .m m m m m m , f . . . w.W I ..m m , ..< B.l.T.T.l.2 h.T..+H.                          ",
"      8. .1 m m m m m m S.% . . . . -./.++V.1 _ ..T U.* ].].* * y j o                           ",
"      U. .m 1 1 1 m m m #+w.. . . . . . + ,+ .1 {  . .; U } k k t.7 H H.6.Z.                    ",
"      _. .m m m m m m m 1 ] . . > P.@+> . % Y.{ 1 _ ( * k 0 <.7 M.R X.W._.6.                    ",
"      U. ._ 1 m 1 m m m m Z.. > e m m U.A . A #+_ ( ( U h Q.^.K e.V &.X W.H.                    ",
"      _. .1 1 m 1 m m m m 1 ) /.#+G.G.8 I.W . u _ _ ( * }.Q.K ^.+.V s D.W.H.                    ",
"      _. .1 1 1 m m m m m 1 .+w.w m G.m m w . v ( ( ( ].h 7 o.K +.).'.< .+H.                    ",
"      U. .1 1 1 1 m m m m m ' w c e G.m m w . C._ ( ( * }.7 o.^.+.>+X.< .+H.                    ",
"      I. ._ 1 1 1 1 m m m G._ d.r D.G.G.m w + #+( ( { U }.'+K K e.*+>+(..+H.                    ",
"      _. .1 1 1 1 1 m m m m m ..W ) ; ; ].* * * ].* * U }.'+K o.e.:.#.L / U * * * y |.3.        ",
"      _. ._ 1 1 1 m 1 m 1 m m { : m.].y n k k k >.k k >.N.'+o.K o.M.)+a./ k k k k h x.!+G H.Z.  ",
"      U. ._ 1 1 1 1 1 m m m 1 1 W.a ].k 0 x.x.Q.<.<.7 Q.$+ +o.o.K  +$+Q.7 Q.<.<.7 M.R Y c..+H.  ",
"      _. ._ 1 1 _ 1 1 _ 1 1 m m #+p ].h Q. +K  +K o.K K K K K K o.K  +o.K K o.^.K +.V &.!.(.`.  ",
"      _. ._ _ _ _ _ 1 _ _ _ ' #+u.S.* }.'+o.^.o.K o.K ^.K ^.o.K o.^.K o.K K K o.K +.V &.F c.=.  ",
"      U. ._ _ 1 _ _ _ 1 1 I.p 5 5 W } Q C +.+.+.:.e.+.^.K K K o.^.&++.+.:.p.p.:.:.3 - &.2 ,.H.  ",
"      U. ._ _ _ _ _ _ _ W.++E . . . [ e.V X.X.- X.! *++.f.K K K e.R X.X.- X.X.X.X.6 s & l.v `.  ",
"      U.4._ ( _ _ _ ( , T.g t i I . x n.;+&.&.&.s L.M [ O ;.^.o.+.V s &.& &.&.&.&.&.&.& P v H.  ",
"      U.e _ _ ( ( _ ( g T.V.= *.% . . -.9 U.N U.U._._.t.j.'+K ^.+.).s v 2 B.F 2 l.l.P F P v `.  ",
"      U. .( ( _ _ ( ( z W | % . . . . w.S H.=.G 8.l N y a.'+ + +e.V &.2 v D c.,.,.,.,.v ,.(.G   ",
"      U. .( ( ( ( ( ( ( ,.a . . . . . %+H.e g g z z #+].h '+K ^.+.V &.2 v C.`.G G G `.`.G =.Z.  ",
"      I. .( { { { ( ( { { v r f f r %.q '  . .e e , , U h 7 o.o.+.V s F c.`.                    ",
"      I. .( ( ( { { { { { { e Z.`.#+'  . .e e , , g g U }.d K ^.+.V s 2 ,.`.                    ",
"      W. .( { { { V.{ ' ' ' ' ' '  . . .e e , , , g g z.N.7.p.+.H - &.l.D H.                    ",
"      I.4.( { { { ' { V.' '  . . . . .e e e , g g z z 0 ~ ).X.6 Y s & l.v `.                    ",
"      I. .{ { { { ' ' '  . . .e  .e e e , , g g g z #+@ 3 ;+&.&.&.&.& r.,.G                     ",
"      I. .( ' ' { ' '  . . . .e e e e , g , g z z z #+#+q D.B.{.] @.T.r.v `.                    ",
"      I.4.{ { {  . . . .e e e e e e e e e , g g z #+z z ..W.(.I k.9 l.v (.H.                    ",
"      U.e { '  .e e e e e e 2.e e e e 2.e , 5.g g 5.z 5.#+..b I : !.$ `.`.Z.                    ",
"      I., #+4 #+$.E.E.E.E.4 #+E.E.E.E.#+$.$.#+4 #+4 4 4 4 u.q w S.c.`.                          ",
"      D.T.++# T.u S Y.Y.Y.@+S Y.S @+b.P.A.] J k.P.] R.) R.R.) f b.c.`.                          ",
"      `.W.2 r.r.T.T.# T.r.T.T.d.T.d.++++++u u ++++u u u Z u u Y.l.D `.                          ",
"        `..+c.c.c.c.c.c.D D c.c.c.c.c.c.(.(.c.c.(.D c.c.(.D (.c.c.[.`.                          ",
"        Z.H.Z.b b H.b Z.H.Z.b H.b Z.H.Z.Z.Z.Z.b Z.H.b H.b 6.b H.H.Z.q                           ",
"                                                                                                ",
"                                                                                                "};
