/* XPM */
static char * big_scan_album_xpm[] = {
"48 48 256 2",
"  	c None",
". 	c #020202",
"+ 	c #266E96",
"@ 	c #62AAD2",
"# 	c #DEDEDE",
"$ 	c #92AAB6",
"% 	c #767202",
"& 	c #2A2626",
"* 	c #5E92B2",
"= 	c #96CEEE",
"- 	c #024A72",
"; 	c #FAEE06",
"> 	c #165A82",
", 	c #FAF62E",
"' 	c #6292B2",
") 	c #88C2E2",
"! 	c #E6E6E6",
"~ 	c #424242",
"{ 	c #FEEE72",
"] 	c #8E8E8A",
"^ 	c #266286",
"/ 	c #8E822E",
"( 	c #9A960E",
"_ 	c #93C2DB",
": 	c #C6BE02",
"< 	c #EAEAEA",
"[ 	c #4E4E4E",
"} 	c #FAEE86",
"| 	c #969696",
"1 	c #BAB256",
"2 	c #A6D6F2",
"3 	c #FAF2B6",
"4 	c #A2C2D2",
"5 	c #A6BECE",
"6 	c #B6BABA",
"7 	c #6E6E32",
"8 	c #1E221E",
"9 	c #3E86AE",
"0 	c #4E5A5E",
"a 	c #FAFAFA",
"b 	c #8E9AA2",
"c 	c #568AA2",
"d 	c #2E2E2E",
"e 	c #DEDA56",
"f 	c #AEC2CA",
"g 	c #C6CED6",
"h 	c #D2B672",
"i 	c #73BAE1",
"j 	c #B2DAEE",
"k 	c #EEEEEE",
"l 	c #90A2AE",
"m 	c #D2CA9A",
"n 	c #728A9A",
"o 	c #AAAAA6",
"p 	c #726E6E",
"q 	c #AEAEAA",
"r 	c #5A5A5A",
"s 	c #B2C6D2",
"t 	c #6A7E8A",
"u 	c #0E0E10",
"v 	c #96A2AE",
"w 	c #8A929A",
"x 	c #D2D2D2",
"y 	c #4E360A",
"z 	c #666A6A",
"A 	c #F6F6F6",
"B 	c #567686",
"C 	c #9EB6C6",
"D 	c #D6DADA",
"E 	c #7AB2D2",
"F 	c #9E9E9E",
"G 	c #56463A",
"H 	c #467692",
"I 	c #3E3E1A",
"J 	c #82827E",
"K 	c #C6C6C6",
"L 	c #A2A2A2",
"M 	c #724E32",
"N 	c #8E8676",
"O 	c #82766E",
"P 	c #565E62",
"Q 	c #7E929E",
"R 	c #E2E2E2",
"S 	c #6CAED8",
"T 	c #B6AAAA",
"U 	c #448AB2",
"V 	c #5CA2CA",
"W 	c #7A7A7A",
"X 	c #42362E",
"Y 	c #7AC2EA",
"Z 	c #B6B2AE",
"` 	c #86B2CE",
" .	c #6A6E6A",
"..	c #AEB6BA",
"+.	c #66A6CE",
"@.	c #BEBEBE",
"#.	c #FEFEFE",
"$.	c #626262",
"%.	c #AE9692",
"&.	c #D6D6D6",
"*.	c #F2F2F2",
"=.	c #B2B2AE",
"-.	c #3E3E3E",
";.	c #2E729A",
">.	c #12567E",
",.	c #AAA6A6",
"'.	c #8A7A76",
").	c #8AA6B6",
"!.	c #868682",
"~.	c #7E7E7A",
"{.	c #B6C6D2",
"].	c #36322E",
"^.	c #A6A6A2",
"/.	c #8A8A86",
"(.	c #CACAC6",
"_.	c #4A565E",
":.	c #92928E",
"<.	c #322A2A",
"[.	c #1B628A",
"}.	c #9A8A82",
"|.	c #464646",
"1.	c #92B6CE",
"2.	c #82BEE0",
"3.	c #767676",
"4.	c #4E92BA",
"5.	c #6AB2DA",
"6.	c #3E3A3A",
"7.	c #766A66",
"8.	c #666666",
"9.	c #9A9A9A",
"0.	c #D2CECC",
"a.	c #565656",
"b.	c #627682",
"c.	c #3A7EA6",
"d.	c #121212",
"e.	c #DADADA",
"f.	c #C2C2C2",
"g.	c #7FC2E9",
"h.	c #E2DEDE",
"i.	c #8CBAD8",
"j.	c #2A2A2A",
"k.	c #72B2D6",
"l.	c #4A4A49",
"m.	c #559AC2",
"n.	c #629ABA",
"o.	c #2E769E",
"p.	c #7A726A",
"q.	c #0A527A",
"r.	c #8A8686",
"s.	c #32363A",
"t.	c #22668E",
"u.	c #4E5256",
"v.	c #52626A",
"w.	c #B2AEAE",
"x.	c #6E6E6E",
"y.	c #625A5A",
"z.	c #6A6666",
"A.	c #A6AAAA",
"B.	c #8E8A8A",
"C.	c #7EC6EE",
"D.	c #CECECE",
"E.	c #7ABEE6",
"F.	c #B6B6B2",
"G.	c #463E3A",
"H.	c #DEDADA",
"I.	c #AACADA",
"J.	c #727272",
"K.	c #82B6D6",
"L.	c #7E9AAA",
"M.	c #222222",
"N.	c #4A8EB6",
"O.	c #6A7276",
"P.	c #66625F",
"Q.	c #D6D2D2",
"R.	c #CAC6C6",
"S.	c #5E5E5D",
"T.	c #DAD6D6",
"U.	c #4282A2",
"V.	c #AEAAAA",
"W.	c #367AA2",
"X.	c #AAC6DA",
"Y.	c #6EB6DE",
"Z.	c #6A92AC",
"`.	c #767272",
" +	c #868A8E",
".+	c #9A9696",
"++	c #064E76",
"@+	c #468EB6",
"#+	c #6E6E76",
"$+	c #A6A2A2",
"%+	c #929292",
"&+	c #9AAAB2",
"*+	c #AEDAF2",
"=+	c #A6C6D6",
"-+	c #BEBABA",
";+	c #F2EEEE",
">+	c #6A6A6A",
",+	c #82AECA",
"'+	c #7E7A7A",
")+	c #8EB2C6",
"!+	c #9AB6C6",
"~+	c #5A9ABE",
"{+	c #56524A",
"]+	c #26221E",
"^+	c #88C6EA",
"/+	c #5EA6CE",
"(+	c #363632",
"_+	c #928E8E",
":+	c #72B6DE",
"<+	c #4A4646",
"[+	c #9E9A9A",
"}+	c #327AA2",
"|+	c #9EC6DE",
"1+	c #7E7E7E",
"2+	c #161612",
"3+	c #8A8A8A",
"4+	c #1A5E86",
"5+	c #76BEE6",
"6+	c #1E668E",
"7+	c #4E96BE",
"8+	c #525E66",
"9+	c #363A3E",
"0+	c #266A94",
"a+	c #524E4A",
"b+	c #6EB2DA",
"c+	c #32769E",
"d+	c #62666E",
"e+	c #AEAEAE",
"f+	c #565A62",
"g+	c #B2B2B2",
"h+	c #A2A6A6",
"i+	c #B6B6B6",
"j+	c #B6B2B2",
"k+	c #868686",
"l+	c #CACACA",
"m+	c #BABABA",
"n+	c #A29E9E",
"o+	c #868282",
"p+	c #C2BEBE",
"q+	c #7A7676",
"r+	c #AAAAAA",
"s+	c #A6A6A6",
"t+	c #CECACA",
"u+	c #96D2F2",
"v+	c #125A82",
"w+	c #96BAD2",
"x+	c #423E3E",
"y+	c #423A3A",
"z+	c #4E4A4A",
"A+	c #2E2A2A",
"B+	c #82C6EE",
"C+	c #828282",
"D+	c #8E8E8E",
"E+	c #525252",
"F+	c #2A6E96",
"G+	c #66AAD2",
"                                      e+K K K K f.m+i+i+i+L 1+s+@.                              ",
"                                      f.k *.*.*.*.A A *.*.e.F /.e+@.                            ",
"                                      f.*.a #.#.a a #.#.a R @.=.] e+@.                          ",
"                                      K *.a a a #.#.#.a #.R x H.s+o+r+@.                        ",
"                                      R.*.a a a A *.A a a R D k D.s+/.w.                        ",
"                                      l+*.A a ! 3.8.3.e+! # r+,.9.C+$. +i+                      ",
"                                      f.*.a a k |.. . ]+J.x &.g+q m+,.k+r+                      ",
"                  e+K K K K f.m+i+i+i+^.k+l+a a %+u d.d M.x.e.R R R f.!.,.                      ",
"                  f.k *.*.*.A A A *.*.e.n+%+e.A x [ D+e.3+e+f.K K K f.@.i+i+i+L 1+s+@.          ",
"                  f.*.a #.a a a a #.a R f.j+[+e.< 3+J.A < f.k *.A *.*.*.A *.*.e.F /.e+@.        ",
"                  K *.A #.#.#.#.a #.a R x # ,.%+&.@.r R a K *.A a a #.a #.#.a R @.=.] e+@.      ",
"                  R.*.a a a A *.A a a ! &.k D.s+.+x 3.| < K *.a a #.a #.#.a #.R x H.s+o+r+@.    ",
"                  l+*.A a ! 3.8.J.=.R # r+A..+!.d+L ,.8.l+R.*.a a a A *.A a a R D k D.s+/.w.    ",
"                  f.*.a a *.|.. . M.D R ! R # T.x t+L a.s+(.*.a a < 3.8.3.e+! # r+,.9.C+$. +i+  ",
"                  f.*.A a a %+u # R D w.| :.:.| Z =.l.2+$.K *.A A k |.. . ]+J.x &.g+q m+,.k+r+  ",
"                  @.k A A A x ! h.o P.x+(+].y+a.x.r.| s+-.@.*.a a a %+u d.d M.x.e.R R R f.!.,.  ",
"                  @.;+A a A R &.W ].z.n K._ _ 5 h+3.W 3+:.m+k A a a x [ D+e.3+j.9.< k ! @.k+s+  ",
"                  @.*.A A e.h.3+]+Q B+S E.g.B+C.Y $ C+W z.k+< A A A k 3+J.A < |.1+R < ! @.!.r+  ",
"                  -+k *.Z R s+].b.2.2 j *+= B+B+g.i !+L W z+Z k a A A @.r R a a.%+! < R @.C+s+  ",
"                  @.k A K D P.v.i.X.g s 5 E S :+Y i :+b B.E+W x *.A a < 3.| < $.e+< ! R i+C+o   ",
"                  @.< *.Q.=.y+l |+..l c U.9 7+/+:+Y.:+,+1+8.<+D.*.*.A *.e+>+l+W K < ! R i+1+s+  ",
"                  @.k k D | A+i.I.l H >.v+4++ c.4.+.5.k.f+W <.D.k A *.R i+E+s+D.# R R # F.W o   ",
"                  @.k ;+R _+j.= =+Z.^ - - ++>.6+;.N.@ S 0 !.& D.< k m+8.j.d.$.# ! R # e.g+W s+  ",
"                  @.< k H.:.].^+_ n.+ - ++++v+4+[.o.U G+_. +& l+k ! s+v s.. -.&.! # e.&.g+1+o   ",
"                  @.< < l+| |.2.2.V W.> [.0+c+o.0+;.c+~+8+W & l+< R O.u.u . ~ x # # e.&.w.W s+  ",
"                  6 < < i+| P.)+E.5.N.0+c.4.@ V @+;.6+' !.$.y+l+! < 9.-.j.|.L e.# &.x x =.W ,.  ",
"                  m+< < F.V.W  +g.i m.c.9 4.b+:+@ 9 ;.t ^.(+x.l+! < # @.e+f.e.# e.&.x D.r+3.s+  ",
"                  m+! ! x o /.x.C C.S @+U.N.Y.E.E.m.B m+#+].f.! R ! R R R # # &.&.x D.l+o J.s+  ",
"                  m+R ! # 3 m '+W f 2.m.9 U 5.Y.i L.m+| x+`.f.! # R # # # e.e.e.&.D.D.l+s+J.s+  ",
"                  s+m+i+m 3 3 m W B.5 w+' * K.1.&+K | <+z+k+f.# R # # H.# # # &.x x 0.l+s+J.s+  ",
"                  [+D+3+}.1 { } h p 3+.+m+t+t+p+s+8.6.r ] W F e+e+e+g+g+j+w.e+e+r+r+s+$+/.p s+  ",
"                  m+e+%.y.G ( ; e |.z+$.z.x.P.a+<.8 x.p+,.3.>+1+_+q+S.'+:.%+B.1+J.W W ~.W !.r+  ",
"                    T 7.G ].<.O R.r+p y+& ]+]+].z.! R # g+k+1+J.x K E+q+f.K f.,.~.| s+s+s+,.i+  ",
"                  T p.G X ]+r.R.x R h+z -.j.8.f.K R # e.g+3+$+f+# a a.%+! < ! m+k+s+            ",
"                T O G X ]+r.K D.< ! h+v 9+. -.x # # e.&.g+3+f.3.| < $.g+< ! R 6 C+s+            ",
"            Z T p.G X <.'+$+t+! k R O.u.u . ~ x R # e.&.j+3+D.e+z l+W f.! ! R F.1+o             ",
"            Z O G X ]+r.D+A.R < < < F -.j.l.F e.e.D &.x =.o+@.i+a.h+D.R R R H.j+W s+            ",
"        Z T p.G X & '+_+:.i+< < < ! e.@.e+f.e.# e.&.x D.r+J.8.j.u P.# ! R # e.g+1+o             ",
"      =.T O G X & O B.D+9.m+! ! ! ! R R # # # e.&.x x D.A. .D+s.. -.x ! # # &.=.W s+            ",
"    } m '.G y <.W D+%+9.^.-+! ! ! R # # # # e.&.Q.D.l+l+s+r 8+d.. ~ x # # &.&.w.1+o             ",
"  , , , / X ].q+D+D+9.$+i+@.! R h.# # # # e.# &.&.x D.t+r+z.l.j.l.L # e.e.&.x e+q+s+            ",
"  N % ( : M '+B._+9.$+i+@.s+i+i+i+j+g+g+w.w.V.e+r+r+s+h+3+3.s+e+f.e.# e.&.x D.r+3.s+            ",
"  @.a+y % 7 _+w 9.s+i+f.  F %+3+ +k+r./.r.k+J C+J 3+r.k+k+%+@.# # e.e.&.x x D.s+J.s+            ",
"    w.G I | D+.+n+F.f.    -+e+,.,.o A.s+A.A.,.,.L f.f.f.@.@.0.# # e.&.&.D.l+l+s+J.s+            ",
"    p+w.%+| :.F h+m+                            @.! R h.h.# # H.# H.&.&.x D.D.,.J.s+            ",
"      -+e+$+L s+i+@.                            ^.i+i+g+g+g+g+g+w.e+V.r+r+$+L /.p s+            ",
"        @.@.m+-+@.                              F %+]  +k+r.k+k+k+C+C+C+C+'+1+W !.r+            ",
"                                                m+q s+,.o A.o ,.s+A.,.s+s+A.s+s+,.j+            "};
