/* XPM */
static char * big_stop_xpm[] = {
"48 48 401 2",
"  	c None",
". 	c #FEB1B1",
"+ 	c #FF8686",
"@ 	c #FF6161",
"# 	c #FF5757",
"$ 	c #FF5454",
"% 	c #FF5353",
"& 	c #FF5151",
"* 	c #FF4B4B",
"= 	c #FD4040",
"- 	c #DB4545",
"; 	c #E37C7C",
"> 	c #FFB2B2",
", 	c #FFA4A4",
"' 	c #FF9393",
") 	c #FF6F6F",
"! 	c #FF5B5B",
"~ 	c #FF5656",
"{ 	c #FF4747",
"] 	c #EE3B3B",
"^ 	c #C12F2F",
"/ 	c #BD4545",
"( 	c #DA7474",
"_ 	c #FFB8B8",
": 	c #FFA5A5",
"< 	c #FF9999",
"[ 	c #FF6D6D",
"} 	c #FF4E4E",
"| 	c #FF4D4D",
"1 	c #FF4C4C",
"2 	c #FF4949",
"3 	c #F94141",
"4 	c #DE3737",
"5 	c #BC2E2E",
"6 	c #A82929",
"7 	c #B54040",
"8 	c #E68484",
"9 	c #FF9D9D",
"0 	c #FFA8A8",
"a 	c #FFA0A0",
"b 	c #FF7272",
"c 	c #FE4A4A",
"d 	c #EF3E3E",
"e 	c #E93C3C",
"f 	c #E73B3B",
"g 	c #E63B3B",
"h 	c #E53A3A",
"i 	c #E03838",
"j 	c #D53535",
"k 	c #C22F2F",
"l 	c #AE2B2B",
"m 	c #A52828",
"n 	c #AB3232",
"o 	c #E58484",
"p 	c #FFB3B3",
"q 	c #FFA3A3",
"r 	c #FF7171",
"s 	c #FB4848",
"t 	c #DA3636",
"u 	c #D73636",
"v 	c #D63535",
"w 	c #D43434",
"x 	c #D33434",
"y 	c #CC3232",
"z 	c #BE2F2F",
"A 	c #AD2B2B",
"B 	c #A42828",
"C 	c #B43E3E",
"D 	c #DC7676",
"E 	c #FEB3B3",
"F 	c #FFA6A6",
"G 	c #FFA7A7",
"H 	c #F94A4A",
"I 	c #E63A3A",
"J 	c #D83636",
"K 	c #D23333",
"L 	c #B84444",
"M 	c #FF9E9E",
"N 	c #FB4949",
"O 	c #FF4646",
"P 	c #CD3232",
"Q 	c #DA4848",
"R 	c #D96969",
"S 	c #CD6B6B",
"T 	c #CB5A5A",
"U 	c #CE3B3B",
"V 	c #D53636",
"W 	c #D54444",
"X 	c #D35555",
"Y 	c #CE4F4F",
"Z 	c #D33F3F",
"` 	c #FFB1B1",
" .	c #D73535",
"..	c #DA8484",
"+.	c #CCBEBE",
"@.	c #B5B5B5",
"#.	c #B0A6A6",
"$.	c #AD6161",
"%.	c #C63636",
"&.	c #D65656",
"*.	c #CA9191",
"=.	c #BDB4B4",
"-.	c #BEADAD",
";.	c #D68181",
">.	c #D53F3F",
",.	c #A32828",
"'.	c #B44343",
").	c #D97777",
"!.	c #D13434",
"~.	c #CD9C9C",
"{.	c #C6C6C6",
"].	c #D5D5D5",
"^.	c #AB9F9F",
"/.	c #A55656",
"(.	c #C33333",
"_.	c #D64F4F",
":.	c #CC9E9E",
"<.	c #B2AFAF",
"[.	c #B7B7B7",
"}.	c #AFAEAE",
"|.	c #CBA1A1",
"1.	c #D64949",
"2.	c #BB2E2E",
"3.	c #A12828",
"4.	c #8D2222",
"5.	c #8F3232",
"6.	c #FE4949",
"7.	c #E33939",
"8.	c #E19999",
"9.	c #EDEAEA",
"0.	c #F8F8F8",
"a.	c #E1E1E1",
"b.	c #CBCBCB",
"c.	c #A9A2A2",
"d.	c #9D4B4B",
"e.	c #C43131",
"f.	c #C9A3A3",
"g.	c #AEAEAE",
"h.	c #BEBEBE",
"i.	c #CFCFCF",
"j.	c #CBC9C9",
"k.	c #CD9A9A",
"l.	c #D54545",
"m.	c #C23030",
"n.	c #992525",
"o.	c #6B1A1A",
"p.	c #4A1212",
"q.	c #DA5454",
"r.	c #EEB4B4",
"s.	c #FCF4F4",
"t.	c #FEFEFE",
"u.	c #F2F2F2",
"v.	c #CECECE",
"w.	c #A9A1A1",
"x.	c #9F4F4F",
"y.	c #C03333",
"z.	c #D23434",
"A.	c #D35151",
"B.	c #C29B9B",
"C.	c #BDBDBD",
"D.	c #ECECEC",
"E.	c #F1D2D2",
"F.	c #DC6969",
"G.	c #D53737",
"H.	c #882121",
"I.	c #441010",
"J.	c #1A0606",
"K.	c #E83B3B",
"L.	c #D94949",
"M.	c #EBA2A2",
"N.	c #FDFBFB",
"O.	c #F1F1F1",
"P.	c #CDCDCD",
"Q.	c #AAA0A0",
"R.	c #A25757",
"S.	c #BD3333",
"T.	c #D55555",
"U.	c #C59898",
"V.	c #AEADAD",
"W.	c #DBDBDB",
"X.	c #F6D9D9",
"Y.	c #E06C6C",
"Z.	c #D53838",
"`.	c #BF2F2F",
" +	c #7D1E1E",
".+	c #2F0B0B",
"++	c #050101",
"@+	c #E93B3B",
"#+	c #D74444",
"$+	c #E99C9C",
"%+	c #F4F4F4",
"&+	c #A05353",
"*+	c #C23131",
"=+	c #D54C4C",
"-+	c #C99D9D",
";+	c #B0ADAD",
">+	c #D9D9D9",
",+	c #F9F8F8",
"'+	c #F6D7D7",
")+	c #DD5E5E",
"!+	c #BC2F2F",
"~+	c #791D1D",
"{+	c #280909",
"]+	c #020000",
"^+	c #D63C3C",
"/+	c #EA9F9F",
"(+	c #FDF7F7",
"_+	c #F9F9F9",
":+	c #D0D0D0",
"<+	c #C39E9E",
"[+	c #AFAFAF",
"}+	c #D4D4D4",
"|+	c #F4F3F3",
"1+	c #F6D8D8",
"2+	c #DE6464",
"3+	c #7B1E1E",
"4+	c #2A0A0A",
"5+	c #D84747",
"6+	c #EBA3A3",
"7+	c #F3F3F3",
"8+	c #C9C9C9",
"9+	c #A2A0A0",
"0+	c #B0AFAF",
"a+	c #C2C2C2",
"b+	c #F3F2F2",
"c+	c #E06E6E",
"d+	c #BD2F2F",
"e+	c #7A1E1E",
"f+	c #290909",
"g+	c #EBA1A1",
"h+	c #FDFDFD",
"i+	c #EAEAEA",
"j+	c #E0E0E0",
"k+	c #EEEEEE",
"l+	c #DF6A6A",
"m+	c #781D1D",
"n+	c #D74141",
"o+	c #FEFDFD",
"p+	c #FCFCFC",
"q+	c #F4DBDB",
"r+	c #DB5E5E",
"s+	c #D44B4B",
"t+	c #E3BBBB",
"u+	c #FBFBFB",
"v+	c #FFFFFF",
"w+	c #D5CCCC",
"x+	c #B45656",
"y+	c #C93333",
"z+	c #D43636",
"A+	c #D05151",
"B+	c #C59A9A",
"C+	c #F5F5F5",
"D+	c #F6F6F6",
"E+	c #ADA4A4",
"F+	c #AE5B5B",
"G+	c #C93636",
"H+	c #D33535",
"I+	c #C64B4B",
"J+	c #BA8F8F",
"K+	c #F0F0F0",
"L+	c #F9E7E7",
"M+	c #E5E5E5",
"N+	c #AC9F9F",
"O+	c #B45F5F",
"P+	c #CD3636",
"Q+	c #C13E3E",
"R+	c #B69292",
"S+	c #ADACAC",
"T+	c #E4E4E4",
"U+	c #FCFBFB",
"V+	c #E99B9B",
"W+	c #DEDEDE",
"X+	c #ACA1A1",
"Y+	c #B85A5A",
"Z+	c #D13333",
"`+	c #761D1D",
" @	c #260909",
".@	c #D43535",
"+@	c #C34747",
"@@	c #B69595",
"#@	c #C3C3C3",
"$@	c #EFEFEF",
"%@	c #DADADA",
"&@	c #ACA4A4",
"*@	c #B55555",
"=@	c #CE3636",
"-@	c #D03333",
";@	c #771D1D",
">@	c #D23636",
",@	c #C45050",
"'@	c #B79090",
")@	c #CCCCCC",
"!@	c #F7F7F7",
"~@	c #B35E5E",
"{@	c #CA3636",
"]@	c #CF3333",
"^@	c #270909",
"/@	c #FF5050",
"(@	c #FF4F4F",
"_@	c #FF4848",
":@	c #E43A3A",
"<@	c #CF5555",
"[@	c #BA9999",
"}@	c #AEACAC",
"|@	c #B96161",
"1@	c #D13838",
"2@	c #B42C2C",
"3@	c #6D1A1A",
"4@	c #1E0707",
"5@	c #010000",
"6@	c #FF4545",
"7@	c #F73F3F",
"8@	c #DF3838",
"9@	c #C48B8B",
"0@	c #B4B3B3",
"a@	c #C5C5C5",
"b@	c #FAFAFA",
"c@	c #F7DADA",
"d@	c #E3E3E3",
"e@	c #C4A7A7",
"f@	c #D44D4D",
"g@	c #9B2626",
"h@	c #4B1212",
"i@	c #0C0202",
"j@	c #000000",
"k@	c #F74747",
"l@	c #E43838",
"m@	c #C59595",
"n@	c #C1C0C0",
"o@	c #F7DDDD",
"p@	c #FCF3F3",
"q@	c #ECEBEB",
"r@	c #E4D0D0",
"s@	c #DA5757",
"t@	c #C03030",
"u@	c #9F2727",
"v@	c #5E1717",
"w@	c #160505",
"x@	c #1C0E0E",
"y@	c #E35C5C",
"z@	c #C43B3B",
"A@	c #B72D2D",
"B@	c #BD2E2E",
"C@	c #CA3131",
"D@	c #DE7F7F",
"E@	c #F0DDDD",
"F@	c #FDFAFA",
"G@	c #F8E2E2",
"H@	c #E48080",
"I@	c #E99A9A",
"J@	c #FAEAEA",
"K@	c #FBF0F0",
"L@	c #EBA9A9",
"M@	c #D84646",
"N@	c #9E2727",
"O@	c #5F1717",
"P@	c #170505",
"Q@	c #2A1515",
"R@	c #7B3D3D",
"S@	c #C64F4F",
"T@	c #AF3434",
"U@	c #AB2A2A",
"V@	c #BA2E2E",
"W@	c #D53E3E",
"X@	c #DC5959",
"Y@	c #DE6363",
"Z@	c #DB5757",
"`@	c #D63B3B",
" #	c #D73F3F",
".#	c #DC5A5A",
"+#	c #D03535",
"@#	c #241212",
"##	c #733939",
"$#	c #CA5656",
"%#	c #A72C2C",
"&#	c #AA2A2A",
"*#	c #CA3232",
"=#	c #A22828",
"-#	c #611717",
";#	c #0E0707",
">#	c #8C4646",
",#	c #AD3333",
"'#	c #211010",
")#	c #C44F4F",
"!#	c #B03636",
"~#	c #763B3B",
"{#	c #B82E2E",
"]#	c #C13030",
"^#	c #B32C2C",
"/#	c #AD3434",
"(#	c #8A2222",
"_#	c #7F1F1F",
":#	c #C14D4D",
"<#	c #9F3131",
"[#	c #731C1C",
"}#	c #320C0C",
"|#	c #250909",
"1#	c #AD4646",
"2#	c #611E1E",
"3#	c #200707",
"4#	c #070101",
"                                                                                                ",
"                                                                                                ",
"                                                                                                ",
"                                                                                                ",
"                                                                                                ",
"                            . + @ # $ $ $ $ $ $ $ $ $ % % & * = - ;                             ",
"                          > , ' ) ! ~ ~ ~ ~ ~ ~ ~ ~ $ $ % & { ] ^ / (                           ",
"                        _ , : < [ $ } } | | | | | | 1 * * 2 3 4 5 6 7 8                         ",
"                      _ 9 0 a b c d e e e f f f f f f g g h i j k l m n o                       ",
"                    p q 0 a r s h t u v v j j j j j j j v j w x y z A B C D                     ",
"                  E F G a b H I J j j j j j j j j j j j j j w x K y z A m L D                   ",
"                _ q G M ) N g J j j j j j j j j j j j j j j j w x K y z l m C 8                 ",
"              _ 9 0 a ) O h J j j j j j j j j j j j j j j j j j w x K P z A B n 8               ",
"            > , 0 a b N h Q R S T U w j j j j j j j j j j V W X Y Z x K y z A m 7 (             ",
"          ` , : a r H g  ...+.@.#.$.%.w j j j j j j j j V &.*.=.-.;.>.x K y z A ,.'.).          ",
"          + ' < b s I J !.~.{.].{.^./.(.j j j j j j j j _.:.<.[.}.|.1.w x K y 2.3.4.5.          ",
"          @ ) [ 6.7.J j w 8.9.0.a.b.c.d.e.w j j j j j W f.g.h.i.j.k.l.j w x x m.n.o.p.          ",
"          ~ ! $ d t v j j q.r.s.t.u.v.w.x.y.z.j j V A.B.g.C.].D.E.F.G.j j j j ^ H.I.J.          ",
"          $ ~ } K.u j j j j L.M.N.t.O.P.Q.R.S.z.V T.U.V.h.W.u.X.Y.Z.j j j j j `. +.+++          ",
"          $ ~ } @+v j j j j j #+$+N.t.%+v.^.&+*+=+-+;+h.>+,+'+)+G.j j j j j j !+~+{+]+          ",
"          $ ~ } e v j j j j j j ^+/+(+t._+:+w.&+<+[+C.}+|+1+2+j j j j j j j j z 3+4+]+          ",
"          $ ~ | f j j j j j j j j 5+6+s.t.7+8+9+0+a+>+b+'+c+Z.j j j j j j j j d+e+f+]+          ",
"          $ ~ | f j j j j j j j j j L.g+N.h+i+v.j+k+0.1+l+Z.j j j j j j j j j !+m+{+]+          ",
"          $ ~ | f j j j j j j j j j j n+M.o+p+7+_+t.q+r+V j j j j j j j j j j !+m+{+]+          ",
"          $ ~ | f j j j j j j j j j V s+t+u+t.v+v+0.w+x+y+w j j j j j j j j j !+m+{+]+          ",
"          $ ~ | f j j j j j V j j z+A+B+b.C+h+t.v+D+8+E+F+G+w j j j j j j j j !+m+{+]+          ",
"          $ ~ | f j j j j j V j H+I+J+<.}+K+p+L+N.h+M+h.N+O+P+w j j j j j j j !+m+{+]+          ",
"          % $ 1 g j j j j j j H+Q+R+S+h.T+U+1+2+V+N.p+W+h.X+Y+z.j j j j j j Z+2.`+ @]+          ",
"          % $ 1 g j j j j .@H++@@@[+#@$@o+'+l+V n+g+s.p+%@C.&@*@=@w j j j j -@2.;@ @]+          ",
"          % $ 1 f v j j j >@,@'@g.)@K+o+1+c+Z.j j L.6+(+!@>+C.&@~@{@w j j x ]@2.;@^@]+          ",
"          /@(@_@:@j j j j <@[@}@v.D+o+'+2+Z.j j j j 5+/+N.!@W.h.N+|@1@j j K y 2@3@4@5@          ",
"          2 6@7@8@j j j j 9@0@a@b@t.c@)+j j j j j j j ^+$+N.h+d@a+e@f@j j -@m.g@h@i@j@          ",
"          k@l@ .!.K x w x m@n@O.t.o@Y.G.j j j j j j j j #+M.p@t.q@r@s@w -@t@u@v@w@j@x@          ",
"          y@z@A@B@C@Z+x x D@E@F@G@H@Z.j j j j j j j j j j L.I@J@K@L@M@-@t@N@O@P@j@Q@R@          ",
"            S@T@U@V@C@Z+x W@X@Y@Z@`@j j j j j j j j j j j j  #.#)+5++#m.u@O@w@j@@###            ",
"              $#%#&#V@*#K x x w j j j j j j j j j j j j j j j j w -@m.=#-#w@j@;#>#              ",
"                $#,#U@2.*#Z+x w j j j j j j j j j j j j j j j j -@t@u@-#J.j@'#>#                ",
"                  )#!#U@V@C@Z+x x j j j j j j j j j j j j j j -@t@N@O@w@j@Q@~#                  ",
"                    )#,#&#V@C@K z.!.Z+!.!.j j j j j j Z+-@-@y m.u@O@w@j@'#~#                    ",
"                      $#%#U@{#]#]#`.z z z !+!+!+!+!+!+!+2.2.^#n.v@P@j@;#>#                      ",
"                        $#/#3.g@(#_#3+3+~+m+m+m+m+m+m+m+m+`+3@h@w@j@@#>#                        ",
"                          :#<#[#p.}#4+4+{+{+{+{+{+{+{+{+ @|#4@i@j@Q@##                          ",
"                            1#2#3#4#]+]+]+]+]+]+]+]+]+]+]+]+5@j@x@R@                            ",
"                                                                                                ",
"                                                                                                ",
"                                                                                                ",
"                                                                                                ",
"                                                                                                "};
