/* XPM */
static char * big_adjust_radio_xpm[] = {
"48 48 256 2",
"  	c None",
". 	c #020202",
"+ 	c #424242",
"@ 	c #969692",
"# 	c #DADADA",
"$ 	c #565A5A",
"% 	c #121212",
"& 	c #C2C2C2",
"* 	c #FE422A",
"= 	c #626E76",
"- 	c #FE3E29",
"; 	c #A2A29E",
"> 	c #2A0E72",
", 	c #E24232",
"' 	c #1A1A1A",
") 	c #7E7E7E",
"! 	c #F6F6F6",
"~ 	c #3E267E",
"{ 	c #222221",
"] 	c #BABAB6",
"^ 	c #DE5246",
"/ 	c #92928E",
"( 	c #6A3A36",
"_ 	c #161616",
": 	c #2E2E2A",
"< 	c #EAEAEA",
"[ 	c #B27E76",
"} 	c #361A76",
"| 	c #56428A",
"1 	c #AAAAA6",
"2 	c #2E1272",
"3 	c #8E8E8A",
"4 	c #3A227A",
"5 	c #CACAC6",
"6 	c #6A5A92",
"7 	c #86423A",
"8 	c #3E3E3E",
"9 	c #7A6E9E",
"0 	c #5E4A86",
"a 	c #9A7E7A",
"b 	c #E6E6E6",
"c 	c #B6B6B2",
"d 	c #5E5E5E",
"e 	c #3A3A39",
"f 	c #8A8A86",
"g 	c #52524E",
"h 	c #8A7EA3",
"i 	c #CECECA",
"j 	c #6E628A",
"k 	c #0E0E0E",
"l 	c #56467E",
"m 	c #4A367A",
"n 	c #7A6E97",
"o 	c #363636",
"p 	c #DEDEDE",
"q 	c #6E4E4A",
"r 	c #B2B2AE",
"s 	c #7A7A76",
"t 	c #626262",
"u 	c #9A9A96",
"v 	c #4A3280",
"w 	c #82827E",
"x 	c #D6D6D6",
"y 	c #4A4A4A",
"z 	c #AEAAA9",
"A 	c #EEEEEE",
"B 	c #6A5A8E",
"C 	c #FAFAFA",
"D 	c #727272",
"E 	c #5E4A8A",
"F 	c #0A0A0A",
"G 	c #BEBEBA",
"H 	c #E2E2E2",
"I 	c #322E2A",
"J 	c #8A8296",
"K 	c #5E666E",
"L 	c #7E7690",
"M 	c #AE8682",
"N 	c #FE5242",
"O 	c #863A32",
"P 	c #262626",
"Q 	c #82769E",
"R 	c #9A96AE",
"S 	c #8A8686",
"T 	c #6E6286",
"U 	c #968A8A",
"V 	c #9E9E9A",
"W 	c #A6A2A2",
"X 	c #4A367E",
"Y 	c #0A0606",
"Z 	c #C6C2C2",
"` 	c #6E5E96",
" .	c #D2D2D2",
"..	c #7E868E",
"+.	c #B2AEAE",
"@.	c #FA4632",
"#.	c #36322E",
"$.	c #F6F2F1",
"%.	c #FEFEFE",
"&.	c #6A6665",
"*.	c #060606",
"=.	c #968EA2",
"-.	c #AAA6B6",
";.	c #624E8A",
">.	c #4E4A48",
",.	c #665686",
"'.	c #726296",
").	c #AEAEB6",
"!.	c #767676",
"~.	c #2A2625",
"{.	c #9E9AAE",
"].	c #4E3A84",
"^.	c #F2F2F2",
"/.	c #928A9A",
"(.	c #323232",
"_.	c #6E6E6A",
":.	c #422A7A",
"<.	c #A6A6A6",
"[.	c #C2BEBE",
"}.	c #8E8A96",
"|.	c #827A8A",
"1.	c #928E9A",
"2.	c #B2AEBA",
"3.	c #565656",
"4.	c #8E86A2",
"5.	c #867E8E",
"6.	c #969292",
"7.	c #3A3632",
"8.	c #AEAEAA",
"9.	c #76669A",
"0.	c #B2B2BA",
"a.	c #423E3A",
"b.	c #86827E",
"c.	c #CAC6C2",
"d.	c #726A8A",
"e.	c #E6E2DE",
"f.	c #2E0E72",
"g.	c #9A9696",
"h.	c #665292",
"i.	c #363232",
"j.	c #B68682",
"k.	c #4A4642",
"l.	c #F2EEEA",
"m.	c #321676",
"n.	c #6A6A6A",
"o.	c #E2DEDA",
"p.	c #BEBABA",
"q.	c #AAA6A6",
"r.	c #BE7E76",
"s.	c #EE422E",
"t.	c #5E5A57",
"u.	c #2A2A29",
"v.	c #868682",
"w.	c #1E1A18",
"x.	c #464646",
"y.	c #4E4E4E",
"z.	c #1A1612",
"A.	c #827E7D",
"B.	c #8E8A92",
"C.	c #3E3A36",
"D.	c #666665",
"E.	c #DAD6D3",
"F.	c #8E8E8E",
"G.	c #EEEAE7",
"H.	c #D2CECE",
"I.	c #B6B2B2",
"J.	c #928E8F",
"K.	c #523E83",
"L.	c #9E9EA6",
"M.	c #96929E",
"N.	c #867AA0",
"O.	c #1E1E1E",
"P.	c #A29E9E",
"Q.	c #929292",
"R.	c #A6A2AE",
"S.	c #AAAAAA",
"T.	c #6E6A67",
"U.	c #524E4A",
"V.	c #26221E",
"W.	c #7E7A77",
"X.	c #625E5B",
"Y.	c #8E423A",
"Z.	c #EAE6E6",
"`.	c #BAB6B6",
" +	c #565251",
".+	c #9E9A9A",
"++	c #D6D2D2",
"@+	c #3A1E76",
"#+	c #FE5642",
"$+	c #C6C6C2",
"%+	c #665692",
"&+	c #B6B6B6",
"*+	c #BEBEBE",
"=+	c #767272",
"-+	c #120E0C",
";+	c #2E2A27",
">+	c #928AA6",
",+	c #8A82A2",
"'+	c #969696",
")+	c #7A7674",
"!+	c #B2B2B6",
"~+	c #8A868E",
"{+	c #9E9E9E",
"]+	c #3A3636",
"^+	c #666260",
"/+	c #0E0A06",
"(+	c #161212",
"_+	c #8A8A8A",
":+	c #5A5654",
"<+	c #3E267A",
"[+	c #766A9A",
"}+	c #2E1276",
"|+	c #BABABA",
"1+	c #828282",
"2+	c #82868A",
"3+	c #A2A2A2",
"4+	c #DEDAD6",
"5+	c #5A5A5A",
"6+	c #FAF6F2",
"7+	c #CECACA",
"8+	c #FEFAFA",
"9+	c #B6B2BA",
"0+	c #863E36",
"a+	c #BA827E",
"b+	c #868686",
"c+	c #524E4E",
"d+	c #7E6E9E",
"e+	c #222226",
"f+	c #CACACA",
"g+	c #B2B2B2",
"h+	c #9A9A9A",
"i+	c #8E829E",
"j+	c #AEAEAE",
"k+	c #B6B6BA",
"l+	c #46423E",
"m+	c #523A86",
"n+	c #766A8C",
"o+	c #C6C6C6",
"p+	c #CECECE",
"q+	c #F2EEEE",
"r+	c #CAC6C6",
"s+	c #7A7A7A",
"t+	c #6E6E6E",
"u+	c #2E2E2E",
"v+	c #868282",
"w+	c #9A969A",
"x+	c #E6E2E2",
"y+	c #4A4646",
"z+	c #42267E",
"A+	c #5A428A",
"B+	c #5A4682",
"C+	c #4E3682",
"D+	c #6A5692",
"E+	c #525252",
"F+	c #8276A2",
"G+	c #E2DEDE",
"                    *+).R h 9 9.'.` '.9.9 h R ).*+                                              ",
"                2.F+].} f.> f.> > f.> > f.> f.} C+Q ).                                          ",
"        Q h.k+n z+> f.~ E n 4.=.M.1.}.J L ` K.4 > f.<+[+!+h.Q                                   ",
"      2.m.> }+> 2 m+h R.<.3+.+u h+h+h+u u u g._+9.v }+f.f.> m.).*+*+                            ",
"      N.2 > > > ;.S.S.P.h+u {+3+S.+.g+g+g+g+g+r 1 .+0 > > > 2 n S.j+*+                          ",
"    9+%+f.f.f.> }+d.6.h+{+j+!+|+p.*+*+*+& & *+*+|+,+2 > > f.f.l B.{+g+*+                        ",
"    -.X > > > m.v Q.Q.; g+G *+                      | } > > > :.|.g.j+*+                        ",
"    h m.> > @+,.S F.Q.'+F.D.8 P ' ' ' P 8 n.h+|+    9+n 4 > > m.T @ <.&+                        ",
"  *+6 }+}+].d.~+Q.J.T.u+k . . . C %.%.z./+. k o b+*+  0.N.v 2 2 l F.P.&+*+                      ",
"  -.C+} B+,+w+Q.1+(.*.. . O.I #.b %.< i.i.#.#.V.. e <.*+G >+].m.:.5.h+z *+                      ",
"  {.}+'.k+<.'+=+_ . . ~.#.7.i.#.B.%.f #.i.#.7.7.#.I V.J.] G g+B 2 L '+<.|+                      ",
"*+%+F+2.c P.!.' . /+I #.#.i.#.7.a.! a.7.#.i.i.#.i.#.i.y+J.!+|+S.n 0 h+3+&+*+                    ",
"    *+*+g+) { p v+i.i.7.#.7.#.#.a.g.#.7.#.#.i.#.i.i.J.b &.B.<.<.3+{+Q.F.h+h+!.v.|+              ",
"      p.h+'  .%.A C.7.#.C.:+@ 5 H b G+o+g.:+C.7.#.C.A %.# A.+.++b < G+H.++# h+v+3 |+            ",
"      *+8 . ;+1 A B.7.>.@ G+C C ^.A < < < x D.k.7.3 A 1 g x.8.& p ! 8+! ! < S.g+v+Q.|+          ",
"      b+. . I #.X.u :+8.! C < 7+S.'+F./ F.(.q v.y.g.X.7.#.C.s I.o+< %.%.%.A &+ .g+v+J.|+        ",
"    |+o . V.i.#.#.U.j+C !  .<.b+) w ) W.i.Y.s.^ U a.#.#.#.i.U.c.c p+^.C C A |+b x j+w _+&+      ",
"    h+k . I 7.i.C.Q.$.$.o+Q.) w 1+) ) e 7 - N M $+t.7.7.#.7.a.q.c *+H C 8+< & ^.< o+<.W.F.|+    ",
"    n.. z.#.#.i.:+H C p+'+1+) ) 1+) 8 0+- N j.o+S.i.i.#.#.i.C.A.r+j+f+^.%.< & ^.! H p+S.s+Q.|+  ",
"    8 . ;+i.7.7.g.! p L.1+) 1+1+) x.O - #+a+5 8.!.u.V.7.#.o 7.T.$+^+S o+! < {+h+u F.1+_.c+t <.*+",
"    P . I #.#.#.5 ! G 2+w ) ) ) y ( - N r.o+).) s+u+k 7.#.#.7.X.H.(.e t *+A p `.h+h+{+<.V s+'+I.",
"    ' 8+b f a.#.p < 3+A.) 1+1+1+E+, @.[ & g+) w !.u+F #.a.f b %.4+: u.{ e j+A b f+f+p H f+A./ g+",
"    *.%.%.%.C '+b # F.1+) ) ) ) w a A.G |+1+) ) t+V.*.g.C %.%.%.$.8 :+y+k o &+A A < < b f+) F.j+",
"    ' C Z.B.a.a.p  ._+) 1+1+1+1+) ) '+ .w ) 1+) d _ Y a.a.f < %.o.B.S.S.5+k D.p A A A b 5 ) Q.g+",
"    P Y (.#.#.#.o+ ._+) ) ) ) ) 1+1+1+) 1+) 1+s++ F k i.i.#.C.A.x !.j+& 5 u+(.o+A < < b o+) J.+.",
"    8 . I #.#.#.J. ._+1+1+1+1+1+) ) ) 1+) 1+) t O.. ' #.7.i.a.z c.g z o+< x.8  .A < < H r+) / g+",
"    n.. I 7.o #.y.&+Q.) ) ) ) 1+1+1+) 1+) ) n.(.*.Y ;+#.7.o U.++`.y 6.f+A x.E+p A < < b $+s+F.j+",
"    w+/+;+#.#.o 7.n.Q.1+1+1+1+) ) ) 1+) ) n.o F . ' #.#.#.]+)+l.r  +n.o+< y.s+< A < b p o+s+/ g+",
"    |+o w.#.#.#.#.C.3.t !.) 1+1+1+) 1+s+5+u+F . (+;+i.#.7.k.Z x+8.s c+I.# x.F.b < b b p & D F.+.",
"      _+. I #.7.t.h+a.]+u+y.D.t+D n.E+(._ . . % ;+#.7.7.C.b.$.Z z J.x.F.x w *+< < H H p & t+F.g+",
"      [.a.V.U.S.q+B.o o ~.k % % _ % F . . *.w.: i.#.i.7.X.e.o.S.{+Q.3.3.p+p H b b H p # *+_.F.j+",
"        S.O.# %.A e #.#.i.I ' k *.*.F k z.u.I #.#.i.7.U.H.l.<.t+y 8 { { h+< < b b H p # *+t+F.g+",
"          u C.b / #.#.o #.i.#.i.#.i.i.o #.7.#.7.7.7.>.H.6+`.) 1+K (.*.*.n.H b H p p p x *+_.F.+.",
"            .+y #.7.#.#.i.#.i.#.i.#.7.#.i.i.i.#.7.t.++$.p.P.) L...(.. . 5+# b H p p # x G t+F.g+",
"              P.^+C.i.7.7.7.7.o #.#.i.#.i.7.7.l+A.e.l.] 1 {+$ = O.*.. . t x H H # # #  .G _.F.j+",
"                r P.T.l+7.#.#.#.7.i.7.7.C.k.=+Z $.4+I.q.<.q.1+u.k *.F x.j+H p # # x  . .|+t+3 g+",
"                  ] z `.P.=+X. + + +^+)+q.E.l.4+[.1 <.q.j+`.7+L.D n.) &+p p p p x x  . .] t B.+.",
"                    *+r q.[.E.e.Z.G.Z.e.E.[.W S 3+<.S.r & x H b p x p H p p # x x  . .p+`.5+3 r ",
"                      *+&+8.; u g.6.6.6./ / / S z c *+H.p b H H H H H H # # x x x p+p+f+c $ _+j+",
"                          p.|+g+1 <.; V .+P.P.'+o+x p H b H H p p p p # # x x  .p+p+f+f+&+:+3 g+",
"                              *+|+] `.|+|+|+] 1 p Z.b b b H H p p p p p # # x  . .p+p+f+&+3._++.",
"                                              S.H b b p p p 4+p p p p # p E.x x  . .p+f+&+5+3 g+",
"                                              <.f+& & [.*+& & *+*+[.[.*+*+|+|+p.|+`.&+!+3+c+_+j+",
"                                              F._+b+b+1+) ) ) A.A.) W.!.D D D D D D.D.n.t 5+F.g+",
"                                              &+<.'+Q.6.6.6.Q.Q.Q.'+Q.Q.Q.Q.Q.Q.Q.J.F./ / Q.g.g+",
"                                                &+r r g+r r j+j+r j+j+j+j++.g+j+g+g+r j+).j+g+|+",
"                                                                                                ",
"                                                                                                "};
