/* XPM */
static char * big_scan_radio_xpm[] = {
"48 48 256 2",
"  	c None",
". 	c #020202",
"+ 	c #325E7E",
"@ 	c #7A9EB2",
"# 	c #96BEDA",
"$ 	c #FAEE06",
"% 	c #02263A",
"& 	c #527A96",
"* 	c #C6BE02",
"= 	c #0E2E3E",
"- 	c #B2D6ED",
"; 	c #FAF62E",
"> 	c #568EB6",
", 	c #263A42",
"' 	c #FEEE72",
") 	c #9E9E9D",
"! 	c #9A960E",
"~ 	c #363632",
"{ 	c #DEDA56",
"] 	c #92AABA",
"^ 	c #FAEE86",
"/ 	c #42667A",
"( 	c #3E3E1A",
"_ 	c #BEBEBE",
": 	c #6E92A6",
"< 	c #8A8A86",
"[ 	c #EAEEF2",
"} 	c #767202",
"| 	c #8E822E",
"1 	c #FAF2B6",
"2 	c #9AAAB6",
"3 	c #CAE2EE",
"4 	c #5E5E5A",
"5 	c #8E8E8A",
"6 	c #D2CA9A",
"7 	c #BAB256",
"8 	c #B6DAEE",
"9 	c #7A726A",
"0 	c #4A4646",
"a 	c #EEF2F6",
"b 	c #868682",
"c 	c #D2B672",
"d 	c #7A96A6",
"e 	c #F6F6F6",
"f 	c #6E6E32",
"g 	c #4E565A",
"h 	c #BED6E2",
"i 	c #1E1E1E",
"j 	c #C2C2C1",
"k 	c #C6DEEA",
"l 	c #E2E2E2",
"m 	c #667A86",
"n 	c #C6C6C6",
"o 	c #9ABED2",
"p 	c #969696",
"q 	c #EAEAE6",
"r 	c #FEFEFA",
"s 	c #724E32",
"t 	c #9EB2BE",
"u 	c #224E6A",
"v 	c #222222",
"w 	c #A6CEE6",
"x 	c #121212",
"y 	c #CEDEEA",
"z 	c #B6CED6",
"A 	c #6E6E6D",
"B 	c #7E7A7A",
"C 	c #626260",
"D 	c #B6B6B6",
"E 	c #4E5256",
"F 	c #3E3E3E",
"G 	c #AEAAAA",
"H 	c #8ABADA",
"I 	c #4E360A",
"J 	c #DEDADA",
"K 	c #9EC6DE",
"L 	c #56463A",
"M 	c #D2D2CE",
"N 	c #42362E",
"O 	c #2E2E2E",
"P 	c #AE9692",
"Q 	c #92A6AE",
"R 	c #122E3A",
"S 	c #76AAD2",
"T 	c #E6E6E6",
"U 	c #CECECE",
"V 	c #365262",
"W 	c #B2B2AE",
"X 	c #0A0A0A",
"Y 	c #969A9A",
"Z 	c #828282",
"` 	c #6A6A66",
" .	c #CED6DC",
"..	c #92928E",
"+.	c #322A2A",
"@.	c #767675",
"#.	c #1E4256",
"$.	c #FAFAFA",
"%.	c #062E42",
"&.	c #A6A6A6",
"*.	c #7A7A76",
"=.	c #5E5E5E",
"-.	c #AAC6D6",
";.	c #8EB2C6",
">.	c #567E9A",
",.	c #BABAB6",
"'.	c #3A464C",
").	c #32566A",
"!.	c #B6AAAA",
"~.	c #CACACA",
"{.	c #32424E",
"].	c #4A4A4A",
"^.	c #6A8A9A",
"/.	c #9A8A82",
"(.	c #AAAAA6",
"_.	c #7696A8",
":.	c #625A5A",
"<.	c #424242",
"[.	c #AABECA",
"}.	c #526E7E",
"|.	c #566A7A",
"1.	c #D6DADA",
"2.	c #3E3A3A",
"3.	c #8E8676",
"4.	c #A2A29E",
"5.	c #262626",
"6.	c #626666",
"7.	c #8A7A76",
"8.	c #D2E6F2",
"9.	c #766A66",
"0.	c #92B6CA",
"a.	c #524E4A",
"b.	c #7E7E7E",
"c.	c #8AA2AE",
"d.	c #062A3E",
"e.	c #D6D6D6",
"f.	c #B6B2AE",
"g.	c #A2C6DA",
"h.	c #1E4A66",
"i.	c #666666",
"j.	c #565652",
"k.	c #62869D",
"l.	c #6E6E76",
"m.	c #3A5E72",
"n.	c #E2DEDE",
"o.	c #DEDEDE",
"p.	c #424642",
"q.	c #060606",
"r.	c #7EA2B4",
"s.	c #8A8686",
"t.	c #92C2E2",
"u.	c #6A6666",
"v.	c #A2BECE",
"w.	c #DADADA",
"x.	c #AECEE2",
"y.	c #4E4E4E",
"z.	c #4A7292",
"A.	c #9A9696",
"B.	c #1E3242",
"C.	c #3E4A52",
"D.	c #727272",
"E.	c #D2CECB",
"F.	c #5282A2",
"G.	c #1A1A1A",
"H.	c #3E667A",
"I.	c #426A8A",
"J.	c #22465A",
"K.	c #2A2A2A",
"L.	c #82766E",
"M.	c #827E7E",
"N.	c #56524A",
"O.	c #5A5A58",
"P.	c #CECACA",
"Q.	c #6E6A6A",
"R.	c #A6A2A2",
"S.	c #729AB2",
"T.	c #928E8E",
"U.	c #264E62",
"V.	c #DAE2EA",
"W.	c #A6CADD",
"X.	c #7692A6",
"Y.	c #36322E",
"Z.	c #9AC2D6",
"`.	c #264A5F",
" +	c #2E5A76",
".+	c #7A7A7A",
"++	c #463E3A",
"@+	c #D6D2D2",
"#+	c #9E9A9A",
"$+	c #96AEBA",
"%+	c #AEAEAA",
"&+	c #82A6BA",
"*+	c #464A4E",
"=+	c #0E3248",
"-+	c #8EC2EA",
";+	c #868282",
">+	c #A29E9E",
",+	c #66625E",
"'+	c #8E8E8E",
")+	c #0E0E0E",
"!+	c #726E6E",
"~+	c #5A92BA",
"{+	c #1E221E",
"]+	c #9ECAE2",
"^+	c #AECADA",
"/+	c #96BACE",
"(+	c #AED2E8",
"_+	c #D6E6F2",
":+	c #929292",
"<+	c #525252",
"[+	c #868686",
"}+	c #666A6E",
"|+	c #06263A",
"1+	c #8E8A8A",
"2+	c #EEEEEE",
"3+	c #F2F2F2",
"4+	c #CAC6C6",
"5+	c #EAE6E6",
"6+	c #9A9A9A",
"7+	c #AAA6A6",
"8+	c #BEBABA",
"9+	c #4E4A4A",
"0+	c #2A2626",
"a+	c #5A5656",
"b+	c #B2AEAE",
"c+	c #A6D2EE",
"d+	c #3E6276",
"e+	c #A2C2D6",
"f+	c #8EC6EE",
"g+	c #423A3A",
"h+	c #B6B2B2",
"i+	c #464646",
"j+	c #769AAF",
"k+	c #26221E",
"l+	c #FEFEFE",
"m+	c #D2D2D2",
"n+	c #B2B2B2",
"o+	c #AAAAAA",
"p+	c #AEAEAE",
"q+	c #0A2E44",
"r+	c #5A6A76",
"s+	c #2A4E62",
"t+	c #9EC2D8",
"u+	c #565252",
"v+	c #A2A2A2",
"w+	c #BABABA",
"x+	c #565656",
"y+	c #6A6A6A",
"z+	c #CADEEA",
"A+	c #96B6CE",
"B+	c #A6C6DA",
"C+	c #26465E",
"D+	c #DAE6F2",
"E+	c #363636",
"F+	c #8A8A8A",
"G+	c #EAEAEA",
"                            :+D p+p+p+p+p+p+p+o+v+) 6+p p p p :+F+.+u+D                         ",
"                            &.T l l l l l l l l l l l l l n.l l G+p ) O.n+_                     ",
"                            o+l $.$.$.$.$.$.$.$.$.$.$.$.l+$.$.$.$.p D 1+C o+_                   ",
"                            7+l $.$.l+l+l+l+l+l+l+l+l+r l+l+$.$.$.6+@+n+..Q.o+_                 ",
"                            G l l+$.$.$.$.r $.$.$.$.$.$.l+l+l+l+$.v+o.E.n+T.!+&._               ",
"                            p+l $.l+$.$.l+$.l+l+l+l+l+l+l+l+l+$.r v+l l U W ..Q.&._             ",
"                            b+l e $.l+$.$.$.$.l+l+l+l+l+l+l+l+$.r &.[ 3+l j W b u.&._           ",
"                            n+l $.$.$.$.l+l+l+$.$.l+l+l+l+l+$.$.$.(.2+$.3+w.j o+b.u.&._         ",
"                            h+l $.$.l+$.$.$.l+2+G+2+2+2+3+l+l+$.e &.G+e e 2+o.U W < A o+_       ",
"                            n+l $.$.$.$.$.l+n =.<+y.y.i.#+j $.$.e ) '+T.'+Z B D.<+F ~ '+D _     ",
"                            p+l e $.$.$.$.$.e.G.. . . X i ].n $.e J n ) :+..5 F+'+:+A < &.w+    ",
"                            (.l $.e $.$.$.$.$.@.. . . . . X 5.[+T $.3+n o+p+n o.w.E.;+[+6+D     ",
"                            R.l $.e $.$.$.$.l+U X . . . . . . x A l e G+l l G+2+G+ .b.b 6+D     ",
"                            v+l e $.$.e $.$.$.$.i.. . O y+.+K.. q.b.G+e 3+a 2+2+T @+b.;+6+D     ",
"                            4.l e e e w.T l l n.e.m+P.e.e $.p+K.. K.~.a 2+2+2+G+T E.b.b A.D     ",
"                            >+l e n.T e.b+A.....A.W f.v+3+l+$.o+v . ;+2+3+2+[ G+l m+b.;+6+D     ",
"                            >+l l n.o+,+++Y.Y.g+a+l.b p o+3+$.$.p.. A.2+2+G+2+q T M b.[+A.D     ",
"                            ) l 1..+Y.p.X.t+B+W.[.Y D..+[+T.l e i+. n+3+2+2+G+T l M b.b 6+D     ",
"                            w.n.[+v |.Z.(+8 - (+B+g.Q D..+y+[+l i+x U 3+2+2+G+T l U .+[+A.D     ",
"                          h+l &.~ |.^+k 8.k ^+;.r._.j+m [+*.a.b+].F o.3+2+G+G+T o.M .+Z 6+D     ",
"                          n 1.,+{.e+_+a  .2 }.U.`.#.`.U.E s.<+.+j.O.o.2+G+G+T T o.U D.Z A.D     ",
"                          m+f.g+X.3 a  .$+^.I.h.% % % % = l.i.i+u+D.l G+G+T T l o.U i.b.6+D     ",
"                          e.p +.o _+V.@ k.k.S > q+|+% % d.*+*.+.;+,.G+G+G+T l o.w.U i.b.A.D     ",
"                          T T.0+w y z d _.# ]+H > z.V d.d.C.s.5.o+o.G+q l l l o.w.~.i.Z 6+D     ",
"                          w.T.Y.]+h v.: &+- w -+S >.s+d.% '.[+0+7+o.G+G+T l l o.w.U C b.A.D     ",
"                          P.p ].# x.0.: r.- f+S k.U.d.% % C..+5.o+w.T T l l l o.w.~.i.M.6+D     ",
"                          ,.p C S.W.;./ & -+>. +`.=+% % |+C C g+v+e.l l o.w.w.e.e.~.i.b.A.D     ",
"                          D G *.}+t+/+d++ > h.% % % % % , :+Y.l.R.w.l l o.o.o.w.@+~.i.Z 6+D     ",
"                          W < s.l._.W.S.m.=+% % % % % |+;+l.Y..+D e.o.l o.w.w.e.m+~.i.M.A.D     ",
"                          _ 1 6 *.*.] t+@ d+#.|+% % B.s.p ++=.4._ e.o.w.w.1.e.e.M ~.i.Z 6+D     ",
"                          6 1 1 6 *.s.t K @ d+`.s+r+%+p 0 ].) ~.e.l o.o.w.w.e.e.M ~.C b.A.D     ",
"                          /.7 ' ^ c l.F+p w+E.E.j 7+i.2.a+1+w+n 1.w.w.w.e.m+e.U U n *+*.6+D     ",
"                        P a+L ! $ { i+a.,+u.l.,+9++.{+l.) (.n @+o.o.e.e.e.m+e.U U 4+].*.A.D     ",
"                      !.9.L N +.L.) 7+l.g+0+i k+~ u.%+W w+M o.o.o.w.1.e.e.m+U U ~.n i+@.6+D     ",
"                    b+9 L N k+;+>+p+4+p+&.7+R.R.v+v+D w+U o.o.w.w.e.e.m+m+m+M U ~.n ].*.A.D     ",
"                  !.9 L N 0+s.#+G m+T w.1.1.1.e.e.@+e.e.o.o.w.e.1.e.e.e.U U U ~.~.n ].@.6+D     ",
"              f.!.L.L N 0+L.Z (.e.T G+l l n.n.o.o.o.o.o.J o.o.J J e.m+e.m+U M U ~.j ].*.A.D     ",
"              b+L.L I 0+s.'+[+~.q T l l n.o.o.o.o.J o.o.o.o.o.o.w.e.@+m+@+m+m+U P.n ].@.6+D     ",
"          f.!.L.L N k+B '+A.p e.U P.P.~.U U P.U U P.P.U P.P.P.U P.U U U U ~.~.~.n j i+@.A.D     ",
"        f.!.L.L N +.B '+p n+[+'+[+F+F+;+.+B b.b..+.+B .+*.@.y+,+i.i.i.` i.u+<+j.j.<+G.@.6+D     ",
"      ^ 6 7.L N +.9 '+6+n+_ p+v+:+5 5 F+F+F+F+< < F+s.s.s.< [+[+[+[+[+b [+;+Z Z Z Z b.'+6+D     ",
"    ; ; $ | N Y.L.'+p n+j     D ) Y 6+6+6+6+6+6+6+6+6+6+6+6+6+6+6+6+6+6+6+6+6+6+6+6+6+6+>+D     ",
"    3.} ! * s .+'+A.n+_       _ D D D D D D D D D D D D D D D D D D h+D D h+D D D D D D D _     ",
"    D <+I } f '+Y n+_                                                                           ",
"    _ b+L g+p :+n+_                                                                             ",
"      8+b+p '+A.w+                                                                              ",
"      j W A.6+n+_                                                                               ",
"        _ ,.w+_                                                                                 "};
