/* XPM */
static char * big_remove_all_xpm[] = {
"48 48 153 2",
"  	c None",
". 	c #AEAEAE",
"+ 	c #C6C6C6",
"@ 	c #C2C2C2",
"# 	c #BABABA",
"$ 	c #B6B6B6",
"% 	c #A2A2A2",
"& 	c #7E7E7E",
"* 	c #A6A6A6",
"= 	c #BEBEBE",
"- 	c #EEEEEE",
"; 	c #F2F2F2",
"> 	c #F6F6F6",
", 	c #DADADA",
"' 	c #9E9E9E",
") 	c #8A8A86",
"! 	c #FAFAFA",
"~ 	c #FEFEFE",
"{ 	c #E2E2E2",
"] 	c #B2B2AE",
"^ 	c #8E8E8A",
"/ 	c #D2D2D2",
"( 	c #DEDADA",
"_ 	c #868282",
": 	c #AAAAAA",
"< 	c #CAC6C6",
"[ 	c #CECECE",
"} 	c #B2AEAE",
"| 	c #CACACA",
"1 	c #E6E6E6",
"2 	c #767676",
"3 	c #666666",
"4 	c #DEDEDE",
"5 	c #9A9A9A",
"6 	c #828282",
"7 	c #626262",
"8 	c #8A8A8A",
"9 	c #464646",
"0 	c #020202",
"a 	c #222222",
"b 	c #727272",
"c 	c #D6D6D6",
"d 	c #B2B2B2",
"e 	c #AEAEAA",
"f 	c #868686",
"g 	c #A6A6A2",
"h 	c #929292",
"i 	c #0E0E0E",
"j 	c #121212",
"k 	c #32363A",
"l 	c #6E6E6E",
"m 	c #C2C2BE",
"n 	c #AAA6A6",
"o 	c #A29E9E",
"p 	c #4A4A4A",
"q 	c #8E8A8A",
"r 	c #B6B2B2",
"s 	c #9E9A9A",
"t 	c #EAEAEA",
"u 	c #F2EEEE",
"v 	c #5A5A5A",
"w 	c #E2DEDE",
"x 	c #A6AAAA",
"y 	c #9A9696",
"z 	c #BABAB6",
"A 	c #92928E",
"B 	c #565656",
"C 	c #0E0E12",
"D 	c #2E2E2E",
"E 	c #3E3E3E",
"F 	c #4E4E4E",
"G 	c #8E8E8E",
"H 	c #2A2A2A",
"I 	c #7A7E82",
"J 	c #46464A",
"K 	c #C2BEBE",
"L 	c #BEBEBA",
"M 	c #666A6A",
"N 	c #424242",
"O 	c #BEBABA",
"P 	c #868682",
"Q 	c #969696",
"R 	c #B6BABA",
"S 	c #7E7E7A",
"T 	c #AAAAA6",
"U 	c #DAD6D6",
"V 	c #6A6A6A",
"W 	c #7A7A7A",
"X 	c #525252",
"Y 	c #B6B6B2",
"Z 	c #FE7E6E",
"` 	c #FE7E6A",
" .	c #FE7A6A",
"..	c #FE725E",
"+.	c #F24A36",
"@.	c #DE2E1A",
"#.	c #FA6A5A",
"$.	c #FA6656",
"%.	c #F66656",
"&.	c #F25E4A",
"*.	c #DE362A",
"=.	c #CA1E12",
"-.	c #767272",
";.	c #E63E2A",
">.	c #E23626",
",.	c #E23622",
"'.	c #E23A26",
").	c #DA2E22",
"!.	c #B6120A",
"~.	c #9A0602",
"{.	c #9E9E9A",
"].	c #FE7A66",
"^.	c #F65E4A",
"/.	c #DA2A16",
"(.	c #DE2A1A",
"_.	c #DA2A1A",
":.	c #D22212",
"<.	c #A20A06",
"[.	c #8E0202",
"}.	c #FE7662",
"|.	c #AA0602",
"1.	c #EE5242",
"2.	c #D62A1E",
"3.	c #CE2212",
"4.	c #CE2216",
"5.	c #C61A12",
"6.	c #A20602",
"7.	c #CE2616",
"8.	c #AA0E06",
"9.	c #9E0602",
"0.	c #9E0606",
"a.	c #920202",
"b.	c #8A0202",
"c.	c #DA2616",
"d.	c #960202",
"e.	c #969692",
"f.	c #7A7A76",
"g.	c #928E8E",
"h.	c #7E7A7A",
"i.	c #8A8686",
"j.	c #82827E",
"k.	c #827E7E",
"l.	c #666262",
"m.	c #96A2AE",
"n.	c #6A6E6A",
"o.	c #4A565E",
"p.	c #CECECA",
"q.	c #726E6E",
"r.	c #8A929A",
"s.	c #565A62",
"t.	c #7A7676",
"u.	c #A6A2A2",
"v.	c #D2CECE",
"                    . + + + + @ # $ $ $ % & * =                                                 ",
"                    @ - ; ; ; ; > > ; ; , ' ) . =                                               ",
"                    @ ; ! ~ ~ ! ! ~ ~ ! { = ] ^ . =                                             ",
"                    + ; ! ! ! ~ ~ ~ ! ~ { / ( * _ : =                                           ",
"                    < ; ! ! ! > ; > ! ! { , - [ * ) }                                           ",
"                    | ; > ! 1 2 3 2 . 1 4 : * 5 6 7 8 $                                         ",
"                    @ ; ! ! - 9 0 0 a b / c d e # * f :                                         ",
". + + + + @ # $ $ $ g f | ! ! h i j k a l , { { { m f n                                         ",
"@ - ; ; ; > > > ; ; , o h , > / p q , 8 . @ + + + m = $ $ $ % & * =                             ",
"@ ; ! ~ ! ! ! ! ~ ! { m r s , t ^ b > t @ u ; > ; ; ; > ; ; , ' ) . =                           ",
"+ ; > ~ ~ ~ ~ ! ~ ! { / 4 n h / = v w ! + ; > ! ! ~ ! ~ ~ ! { = ] ^ . =                         ",
"< ; ! ! ! > ; > ! ! 1 c - [ * 5 / b 5 t + ; ! ! ~ ! ~ ~ ! ~ { / ( * _ : =                       ",
"| ; > ! 1 2 3 b d { 4 : x y 6 3 % * 3 | + ; ! ! ! > ; > ! ! { , - [ * ) }                       ",
"@ ; ! ! ; 9 0 0 a b / c d ] z x A % B * | ; ! ! t 2 3 2 . 1 4 : * 5 6 7 8 $                     ",
"@ ; > ! ! h C j D a l , { { { = l E j 7 + ; > > - 9 0 0 a b / c d e # * f :                     ",
"= - > > > / F G 4 8 H 5 1 t t = I J 0 E K ; ! ! ! h i j k a l , { { { m f n                     ",
"= u > ! > - 8 b > - 9 & { t 1 L M H 0 N = - > ! ! / p q , 8 H 5 t - 1 L f *                     ",
"= ; > > ! > = B { ! B h t t 1 # 7 E p % O ; > > > - ^ b > t J & { t 1 = P :                     ",
"O - ; > > > t b Q t 7 } 1 1 { # 6 5 @ , O - > ! > > = v w ! B h 1 t { = 6 *                     ",
"= - > > e + + + + m # R $ $ * S I # 4 4 = u ; > > > t b 5 t 7 . t 1 { $ 6 T                     ",
"L t ; ; @ - ; > ; ; ; > ; ; U o S : , , = - ; > > > > . V | W + t 1 { $ & *                     ",
"= - - ; @ ; ! ! ! ~ ~ ! ! ! { = } ) @ , = - ; ; ; ; { $ X * [ 4 { { 4 Y W T                     ",
"= - - ; + ; ! ! ! ! ~ ~ ~ ~ { [ 4 * 6 Z `  .` Z  .`  .` `  .` Z  . . .`  .` `  . ...+.@.        ",
"= t - - + > > ~ ! > > > ! ! 1 , - [ % ` ..#.$.%.#.%.#.$.$.%.$.$.%.%.%.$.%.$.$.%.%.&.*.=.# # =   ",
"O t t t + ; > ! 1 -.3 b . 1 , : n Q 6  .$.;.>.>.,.,.*.'.'.>.'.'.'.'.>.'.>.>.'.'.>.).!.~.{.g #   ",
"# t t t @ ; ! ! ; 9 0 0 a b / c d ] z ].^.,.@./.@./.@././.@./.(.(.(.)./.@.@.(./._.:.<.[.h 5 z   ",
"# 1 1 t @ ; ! ! ! h C j D a l , { { 1 }.^.,._./._./._.(./././././.(./././././././.:.|.[.Q 5 #   ",
"# t 1 { K - > > ! / F G , 8 H 5 1 t 1 #.1.2.3.4.3.4.3.3.4.4.4.3.3.3.3.3.4.3.4.3.3.5.6.[.h ' $   ",
"# 1 { 4 = - > > > - ^ b > - J & { t 1 '.7.8.9.<.6.6.<.9.6.<.<.<.9.<.0.9.<.6.0.0.9.~.a.b.h ' #   ",
"n $ $ r = u > > ! > = v { ! B h t t 1 c.!.d.[.b.b.b.b.b.b.b.b.b.b.b.[.b.b.b.b.b.b.[.b.b.e.5 $   ",
"' h ^ f = - > > > > t b Q t 7 . t 1 { O f.q g.G G G g.g.G G ^ q q 8 q _ h.q h h h h h h e.' #   ",
"O e * T = - ; > > > ; . V | 2 + 1 1 { R W 2 & i.& -.j.) i.f k.S & k.& & P h {.{.{.{.{.' s % z   ",
"        = - ; ; ; ; { $ B x [ { { { 4 Y P & b + L B W # O # ' k.h % % % g . $ $ $ $ $ # $ # =   ",
"        = t - ; - $ M H i l.4 1 { 4 , d 8 * v 4 ! B A t t 1 = P x                               ",
"        = - - ; 1 * m.k 0 E / 1 4 , , Y 8 @ 2 5 t 7 . t 1 { R k.*                               ",
"        = t - - { n.o.j 0 N / 4 4 , / d ) p.. 3 | 2 + 1 1 4 Y & T                               ",
"        # t t t t s E H J % 4 , U c / } f = $ X : | { 1 { 4 Y W *                               ",
"        # t t t t 4 = . @ , 4 , c / [ . q.3 H j 7 { 1 { 4 , d & T                               ",
"        # 1 t 1 { { 4 { 4 , , c / [ | x n.r.k 0 E / { 4 , c ] W *                               ",
"        R t 1 1 { 4 4 ( , , c c / [ | * v s.C 0 N / 4 4 , c } & T                               ",
"        # { { { 4 4 4 4 4 , c / / / [ : 3 F H J % 4 4 U c / . t.*                               ",
"        * # $ d d d d r } . . : : u.u.q W g . @ , 4 , c / [ : 2 *                               ",
"        5 g.q 8 8 8 f f f k.6 & G f f 6 h = { 4 , c c / / p.* b *                               ",
"        O . x * * * x n n x T * @ @ @ K = v., 4 , , c [ | | * b *                               ",
"                              # 1 { 4 4 4 4 ( 4 , c / / [ [ n b *                               ",
"                              * $ $ Y r d r d } . . . : u.% 8 q.*                               ",
"                              ' A 8 8 f ) f f _ k.6 6 6 h.I f.P :                               ",
"                              # . * * x * T T T x * n * x n * n r                               "};
