/* XPM */
static char * big_add_folder_xpm[] = {
"48 48 256 2",
"  	c None",
". 	c #020202",
"+ 	c #027202",
"@ 	c #7A663A",
"# 	c #0AAE36",
"$ 	c #BE9E5F",
"% 	c #3EEE8A",
"& 	c #56F69A",
"* 	c #5AF69E",
"= 	c #028A16",
"- 	c #D2CEA2",
"; 	c #2E2E2E",
"> 	c #F6E8B0",
", 	c #8B8A8A",
"' 	c #9E9E9E",
") 	c #594211",
"! 	c #029621",
"~ 	c #BEBA96",
"{ 	c #F6EACA",
"] 	c #02B22E",
"^ 	c #725212",
"/ 	c #727272",
"( 	c #CFCECE",
"_ 	c #B6B6B6",
": 	c #D2B676",
"< 	c #A78A51",
"[ 	c #96763D",
"} 	c #F8EED0",
"| 	c #101010",
"1 	c #0CD256",
"2 	c #06CA5B",
"3 	c #FAF2D6",
"4 	c #16D666",
"5 	c #F2DFA1",
"6 	c #9B9898",
"7 	c #676868",
"8 	c #CAAE73",
"9 	c #56524A",
"0 	c #1E1202",
"a 	c #03B649",
"b 	c #464646",
"c 	c #412F0A",
"d 	c #E6CC8B",
"e 	c #EEEEEE",
"f 	c #FAEEAE",
"g 	c #F2F2F2",
"h 	c #AE8E54",
"i 	c #8C6D30",
"j 	c #028612",
"k 	c #BBBAB8",
"l 	c #2E1E06",
"m 	c #25EA7A",
"n 	c #EFDA9F",
"o 	c #B2AE8A",
"p 	c #FEFCE2",
"q 	c #4D370A",
"r 	c #4E422A",
"s 	c #705A32",
"t 	c #D2D2D2",
"u 	c #DCCAA3",
"v 	c #767676",
"w 	c #C6AA6C",
"x 	c #C9C29B",
"y 	c #625C53",
"z 	c #6C685E",
"A 	c #02AB3A",
"B 	c #05C659",
"C 	c #D6D6D6",
"D 	c #0EE264",
"E 	c #2AEA7E",
"F 	c #FEFEE6",
"G 	c #C8C6BA",
"H 	c #AE9A56",
"I 	c #7E673E",
"J 	c #E6D6B5",
"K 	c #7C7366",
"L 	c #F2DEAA",
"M 	c #5E4824",
"N 	c #4E3E22",
"O 	c #0AC24A",
"P 	c #322206",
"Q 	c #36EA86",
"R 	c #A68C58",
"S 	c #6D5423",
"T 	c #6B4D10",
"U 	c #222222",
"V 	c #7D5D1E",
"W 	c #827A72",
"X 	c #DAC2A2",
"Y 	c #987C45",
"Z 	c #D2BE8E",
"` 	c #42F08C",
" .	c #DFC386",
"..	c #FDF5CC",
"+.	c #66625A",
"@.	c #837253",
"#.	c #5A3E0B",
"$.	c #C3A667",
"%.	c #D6C296",
"&.	c #02BA32",
"*.	c #FEF2B7",
"=.	c #F2E8CE",
"-.	c #E2E2E2",
";.	c #027B04",
">.	c #846C40",
",.	c #8B7144",
"'.	c #A2A2A2",
").	c #FAFAFA",
"!.	c #D6D1BD",
"~.	c #969282",
"{.	c #1BED76",
"].	c #D2CEA6",
"^.	c #775B27",
"/.	c #E6D2A2",
"(.	c #3E2A08",
"_.	c #FDF9DB",
":.	c #66490E",
"<.	c #563E0D",
"[.	c #CAC2AE",
"}.	c #FEF6BB",
"|.	c #E6DABC",
"1.	c #AA9870",
"2.	c #5E5236",
"3.	c #E2DECA",
"4.	c #AFAEAE",
"5.	c #C2B29E",
"6.	c #A3844C",
"7.	c #5E4E3A",
"8.	c #46F292",
"9.	c #80807F",
"0.	c #EED697",
"a.	c #CECAB2",
"b.	c #666262",
"c.	c #E6E6E6",
"d.	c #D9BE81",
"e.	c #03BA50",
"f.	c #039E29",
"g.	c #7D6E50",
"h.	c #4B3719",
"i.	c #59441E",
"j.	c #3A2A08",
"k.	c #878685",
"l.	c #BEAE82",
"m.	c #DADADA",
"n.	c #FEFEEA",
"o.	c #AAAAA9",
"p.	c #B69659",
"q.	c #765E36",
"r.	c #02BE52",
"s.	c #F6F6F6",
"t.	c #FEFBCF",
"u.	c #574832",
"v.	c #826E50",
"w.	c #F6E6B6",
"x.	c #A18C66",
"y.	c #ABA5A3",
"z.	c #C2A263",
"A.	c #B6A682",
"B.	c #D1BA8A",
"C.	c #DBC69B",
"D.	c #FEFEDA",
"E.	c #473108",
"F.	c #382607",
"G.	c #927632",
"H.	c #6A5E4E",
"I.	c #867E6A",
"J.	c #A4926D",
"K.	c #50F298",
"L.	c #766E62",
"M.	c #CCB27C",
"N.	c #786649",
"O.	c #564E3A",
"P.	c #695430",
"Q.	c #CECABA",
"R.	c #028F1B",
"S.	c #0ACE58",
"T.	c #B2B69E",
"U.	c #EAEAEA",
"V.	c #BB9A5C",
"W.	c #988256",
"X.	c #5E420C",
"Y.	c #02B246",
"Z.	c #523A0B",
"`.	c #DFCEAA",
" +	c #5F4D2A",
".+	c #221602",
"++	c #654E25",
"@+	c #96968F",
"#+	c #C5C2B9",
"$+	c #EADEB6",
"%+	c #FEFAC1",
"&+	c #028212",
"*+	c #72623E",
"=+	c #11E96D",
"-+	c #4E4E4E",
";+	c #64543B",
">+	c #06CE5E",
",+	c #917235",
"'+	c #8E764A",
")+	c #6E6E6E",
"!+	c #8A8272",
"~+	c #5B5955",
"{+	c #463213",
"]+	c #6F5E43",
"^+	c #B19256",
"/+	c #BEBEBE",
"(+	c #84662E",
"_+	c #F1E0B3",
":+	c #3E3E3E",
"<+	c #D2BA85",
"[+	c #B2B2B1",
"}+	c #523E1A",
"|+	c #FEFEFE",
"1+	c #6C5B3D",
"2+	c #DEDEDE",
"3+	c #7E6A4A",
"4+	c #E4CE9A",
"5+	c #7E622A",
"6+	c #F5E6C0",
"7+	c #909192",
"8+	c #CDB274",
"9+	c #C5AA73",
"0+	c #725C38",
"a+	c #C7C6C5",
"b+	c #06A636",
"c+	c #027602",
"d+	c #FAEEC6",
"e+	c #AE9A6E",
"f+	c #816739",
"g+	c #32363A",
"h+	c #7E7A6A",
"i+	c #2A2A2A",
"j+	c #A6A6A5",
"k+	c #7A6238",
"l+	c #61460E",
"m+	c #736245",
"n+	c #0BD664",
"o+	c #626060",
"p+	c #CEB682",
"q+	c #CBCBC7",
"r+	c #EDE2C6",
"s+	c #16CE62",
"t+	c #E3D2AE",
"u+	c #05C253",
"v+	c #796A4D",
"w+	c #281B02",
"x+	c #3AEE88",
"y+	c #F2E1BB",
"z+	c #5A4E36",
"A+	c #F7EAC5",
"B+	c #C2C2C0",
"C+	c #FEF6C5",
"D+	c #02AE44",
"E+	c #D6BE91",
"F+	c #EFDAA9",
"G+	c #AA8E52",
"                                                                                                ",
"                                                                                                ",
"                                                                                                ",
"                                4.a+a+a+a+B+k _ _ _ '.9.j+/+                                    ",
"                                B+e g g g s.s.s.g g C ' , 4./+                                  ",
"                                B+g ).|+).).).).|+|+-./+[+, 4./+                                ",
"                                a+g s.|+|+|+|+).).|+-.t 2+j+k.o./+                              ",
"                                a+g ).).).s.g s.).).c.C e ( j+k.[+          %+%+%+%+%+%+*.      ",
"                                q+g s.).c.v 7 v 4.c.2+o.j+@+k.b., _       %+%+%+}.*.*.*.f 5     ",
"          4.a+a+a+a+B+k _ _ _ '.W q+).).g b . . U / ( C _ 4._ j+k.o.    %+%+%+*.5 n 0.0.d 8 h   ",
"          B+e g g g s.s.s.g s.m.' 7+C s.).7+| | ; U )+C -.-.c./+k.y.  %+%+%+}.5 d.8+w 8 $.6.V V ",
"          B+g ).|+).).).).|+).-./+[+' m.s.t b 7+m., ; ' U.U.c./+k.o.  %+%+*.n d.8 z.z.$ p.[ ^ :.",
"          a+g s.|+|+|+|+).|+).-.t m.j+7+C e , / ).U.b 9.c.U.c./+~.].%+%+*.5 d.w z.z.$ V.p.G.^ X.",
"          a+g ).).).s.g s.).).c.C e ( j+6 2+/+~+2+).9 7+c.U.c./+@+].*.*.f  .8 $ z.$ V.V.h ,+:.X.",
"          q+g s.).c.v 7 / [+c.2+4.y.6 9.7 '.2+v 6 U.K.* & K.K.` D &.0.0.d : z.V.$ V.p.^+< ,+:.#.",
"          B+g ).).g b . . U / ( C _ 4.k y.@+t 4.7 q+* K.x+% % E 2 A _ [+_ _ y.K < p.^+^+< i l+#.",
"          B+g s.).).7+| | ; U )+m.-.-.c./+7+/+_ 9 j+K.Q n+2 2 O ! j a+t U.g m.' !+< h G+6.>.l+<.",
"          /+e s.s.s.t -+7+m., i+6 U.U.c./+k.7 i+| 7 K.E 2 r.r.a R.c+#+Q.g ).-./+4.I.W.< 6.(+l+Z.",
"          /+e s.).s.e , / ).e b 9.c.U.c./+9.7+g+. :+K.E 2 e.e.a R.;./+q+g |+-.t m.y.K Y Y k+X.Z.",
"s.n.F F F F F F _.D._._.D._._.D.t.t.D.D.t._.t.D.t.t.& E 2 r.r.Y.R.;.x x 5  .X t e ( j+K '+5+) q ",
"3.F _._._._._.D._.D._..._.t.........C+C+..C+C+}.C+}.K.m B e.e.Y.R.j ~ x 5 d 8 A.j+@+9.b.v+q.#.q ",
"a+p _.3 } } { { { 6+A+A+6+6+6+6+6+6+y+L _+_+L F+L F+& E 2 r.r.a f.R.A.l.d.8+< 5.[+4.k j+L.*+<.E.",
"/+=.} r+|.|.J J J t+t+t+`.`.u u C.* & & & K.& K.K.K.8.m B e.r.a D+O =+m K.* K.* 8.=+4 /+K ]+Z.E.",
"B+!._.r+J t+`.`.`.u C.C.C.%.C.E+E+K.K.% Q % Q % x+x+Q =+B r.e.r.B D {.{.Q Q x+Q E S.Y._ L.1+Z.E.",
"  B+} 6+J t+`.u u u u C.%.%.%.Z E+K.Q n+2 S.2 2 2 >+2 B r.r.e.e.r.B 2 B 2 2 >+2 u+f.&+@+z 1+Z.c ",
"  B+|.} |.`.`.`.u C.C.%.%.Z Z E+B.& E 2 r.r.r.r.r.r.r.r.r.e.r.r.r.e.e.r.r.r.e.r.Y.R.c+7+z 1+E.c ",
"    a+3 $+`.u u u a.%.%.%.E+B.Z p+& m B e.e.r.e.e.r.e.e.r.e.e.e.r.r.r.r.e.r.e.e.Y.R.c+, H.1+E.(.",
"    B+r+6+t+u C.X %.%.%.Z Z Z p+B.% {.r.Y.Y.D+Y.Y.Y.e.r.e.r.r.r.a Y.D+D+Y.D+D+D+b+= c+, o+;+E.(.",
"    #+!.} J C.C.%.E+Z E+B.<+B.p+p+1 a R.j j j = ! f.a 2 r.e.e.Y.f.= j j = j j j &+;.+ k.~+;+{+j.",
"      G A+|.u %.%.%.E+B.B.p+p+p+M.] f.;.c+c+c+;.f.# S.n+u+r.r.Y.R.;.c+c+c+c+c+c+c+c++ k.y 2.c F.",
"      #+|.y+`.%.Z Z Z B.B.p+M.M.8 M.9+1.J.x.x.x.x.x.E =+u+e.r.Y.R.;.@.v.g.g.v+N.H.2.H.I.~+7.(.F.",
"      /+a.d+/.%.Z Z B.B.p+p+p+M.M.8 9+1.1.1.J.x.x.x.% {.B r.e.Y.R.c+@.@.v.3+v+N.q.2.u.h+y z+(.P ",
"        #+r+L X B.B.p+p+M.M.8 8 9+9+9+z.z.$ $ $ H V.8.E B r.r.Y.R.c+g.g.'+,.,.>.>.s i.g.~+u.j.P ",
"        #+].y+d B.p+p+M.M.8 M.8 8 9+9+$.$.$.z.$ V.p.K.m 2 r.e.Y.R.;.3+v.,.'+,.>.I q.M M 2.u.F.P ",
"          G 6+/.E+p+p+p+M.8 l.w w $.$.z.z.z.$ V.p.^+& m B r.e.Y.R.c+N.v+i >.>.>.I k+P.h.O.u.P l ",
"          #+J n E+p+M.8 8 w w w $.$.$.$.z.V.V.p.^+^+% =+e.D+D+b+= c+N.N.v.>.>.I k+q.P.}+N r F.l ",
"          B+a.w. .p+M.8 8 w $.w $.z.$ $ $ V.p.^+h < n+e.R.= j &+;.c+m+N.>.f+f+k+q.s P.i.{+r l w+",
"            #+L /.p+8 w 9+w $.z.z.z.$ V.p.^+p.^+< < s+b+;.+ c+c+c++ *+]+@ I k+q.s s P.i.{+h.l w+",
"            B+].n <+8 9+$.$.$.z.$ $ V.V.p.^+h G+< < 6.Y @.v+N.m+m+]+]+]+k+k+q.q.s P.P.u.h.c l w+",
"              [.n d.$.$ $ $ p.p.^+^+^+< < 6.6.6.Y Y '+'+3+m+*+*+]+1+1+P.s s P.P.++ +M i.h.j.l .+",
"              k p+z.6.G.,+,+,+i (+(+(+(+(+V V ^.^.S S S S S ++M M M M i.i.i.h.}+h.h.h.{+j.P P .+",
"              /+o ^+i ^.^ ^ T ^ T :.:.l+l+l+) ) #.#.<.Z.Z.q q q q E.E.c (.(.c (.j.j.F.P P l P 0 ",
"                T.H i ^ :.:.l+l+l+X.X.#.#.#.#.Z.Z.Z.q q E.E.E.c c c (.(.(.F.F.P P P P l l w+w+w+",
"                                                                                                ",
"                                                                                                ",
"                                                                                                ",
"                                                                                                ",
"                                                                                                "};
