/* XPM */
static char * big_remove_files_xpm[] = {
"48 48 167 2",
"  	c None",
". 	c #020202",
"+ 	c #2E2E2E",
"@ 	c #6E86A2",
"# 	c #A6A6A2",
"$ 	c #1A1A1A",
"% 	c #BEBEBE",
"& 	c #E63E2A",
"* 	c #262626",
"= 	c #D6D6D6",
"- 	c #E23622",
"; 	c #8A0202",
"> 	c #E6E6E2",
", 	c #AA0602",
"' 	c #4A4A4A",
") 	c #DE2E1A",
"! 	c #565652",
"~ 	c #EEEEEE",
"{ 	c #8E8E8A",
"] 	c #F66656",
"^ 	c #DA2E22",
"/ 	c #5E5E5E",
"( 	c #F2F2F2",
"_ 	c #FA6A5A",
": 	c #A6C6E2",
"< 	c #6A6E72",
"[ 	c #AEAEAE",
"} 	c #829AB2",
"| 	c #B6120A",
"1 	c #F6F6F6",
"2 	c #A20602",
"3 	c #DADADA",
"4 	c #CACAC6",
"5 	c #D22212",
"6 	c #FEFEFA",
"7 	c #9E9E9A",
"8 	c #96B6D6",
"9 	c #363636",
"0 	c #121212",
"a 	c #DEDEDE",
"b 	c #E6422E",
"c 	c #727272",
"d 	c #FE725E",
"e 	c #B2B2AE",
"f 	c #F24A36",
"g 	c #9E0602",
"h 	c #FAFAFA",
"i 	c #D2D2CE",
"j 	c #828282",
"k 	c #3A3A3A",
"l 	c #B6B6B6",
"m 	c #C2C2C2",
"n 	c #868682",
"o 	c #0E0E0E",
"p 	c #D6E2EA",
"q 	c #BE1606",
"r 	c #7A7A76",
"s 	c #969692",
"t 	c #060A0A",
"u 	c #EE5242",
"v 	c #EAEAE6",
"w 	c #BABAB6",
"x 	c #FE7662",
"y 	c #C61A12",
"z 	c #960202",
"A 	c #666666",
"B 	c #A2A29E",
"C 	c #969292",
"D 	c #DA2616",
"E 	c #9A9A9A",
"F 	c #8A8A86",
"G 	c #4E4E4E",
"H 	c #CECECA",
"I 	c #424242",
"J 	c #7E7E7A",
"K 	c #AAAAA6",
"L 	c #FE7A66",
"M 	c #222222",
"N 	c #F25E4A",
"O 	c #DE2A1A",
"P 	c #CA1E12",
"Q 	c #C6C6C6",
"R 	c #92928E",
"S 	c #060606",
"T 	c #E2E2E2",
"U 	c #FE7E6A",
"V 	c #6A6A66",
"W 	c #E23A26",
"X 	c #8E0202",
"Y 	c #A29E9E",
"Z 	c #7E7A7A",
"` 	c #464646",
" .	c #AA0E06",
"..	c #DE362A",
"+.	c #CE2616",
"@.	c #565252",
"#.	c #1E1E1E",
"$.	c #9E9E9E",
"%.	c #9E9A9A",
"&.	c #2A2A2A",
"*.	c #525252",
"=.	c #928E8E",
"-.	c #CECACA",
";.	c #FA6252",
">.	c #726E6E",
",.	c #DEDADA",
"'.	c #E2DEDE",
").	c #7A7676",
"!.	c #D6D2D2",
"~.	c #8A8686",
"{.	c #FA5E4E",
"].	c #BABABA",
"^.	c #5A5A56",
"/.	c #A20A06",
"(.	c #DA2A16",
"_.	c #CE2212",
":.	c #FA6656",
"<.	c #767672",
"[.	c #6E6A6A",
"}.	c #323232",
"|.	c #62625E",
"1.	c #D62A1E",
"2.	c #C2BEBE",
"3.	c #B6B2B2",
"4.	c #9A9696",
"5.	c #A6A2A2",
"6.	c #8E8A8A",
"7.	c #D2CECE",
"8.	c #827E7E",
"9.	c #CAC6C6",
"0.	c #DA2A1A",
"a.	c #AA0A06",
"b.	c #9A0602",
"c.	c #0A0A0A",
"d.	c #6A6666",
"e.	c #8E8E8E",
"f.	c #6E6E6A",
"g.	c #920202",
"h.	c #E6E6EA",
"i.	c #FEFEFE",
"j.	c #D2D2D2",
"k.	c #868686",
"l.	c #A2A2A2",
"m.	c #AAAAAA",
"n.	c #CE2216",
"o.	c #969696",
"p.	c #B2B2B2",
"q.	c #7A7A7A",
"r.	c #565656",
"s.	c #6A6A6A",
"t.	c #F65E4A",
"u.	c #FE7A6A",
"v.	c #A6A6A6",
"w.	c #E23626",
"x.	c #E6E6E6",
"y.	c #CACACA",
"z.	c #EAEAEA",
"A.	c #8A8A8A",
"B.	c #CECECE",
"C.	c #7E7E7E",
"D.	c #929292",
"E.	c #FE7E6E",
"F.	c #767676",
"G.	c #9E0606",
"H.	c #6E6E6E",
"I.	c #D22216",
"J.	c #626262",
"                                                                                                ",
"                                                                                                ",
"                                                                                                ",
"        D.l [ [ [ [ [ [ [ m.l.$.E o.o.o.o.D.A.q.@.l                                             ",
"        v.z.T T T T T T T T T T T T '.T T T z.o.%.^.p.%                                         ",
"        v.T h h h h h h h h h h h h 6 h h h h o.l 6./ m.%                                       ",
"        v.T h i.i.i.i.i.i.i.6 6 i.h i.i.i.i.6 E j.l C [.m.%                                     ",
"        [ T h h h h h 6 h h h h h i.i.i.h h h # a 7.e D.>.v.%                                   ",
"        m.T h i.h h h i.i.i.i.i.i.i.i.i.i.i.h l.> T H [ =.[.v.%                                 ",
"        [ T h h i.i.h h h h i.i.i.h i.i.h h h v.z.( T Q e k.d.v.%                               ",
"        3.T 1 h h i.i.i.i.h h h i.h i.i.h i.h m.~ 1 ( 3 m m.Z d.v.%                             ",
"        p.T h h h h h h h ~ ~ ~ ~ ~ 1 i.i.h h m.z.h 1 ~ T B.e F H.m.%                           ",
"        3.T 1 h h h i.i.9./ *.G *.A E m h h ( $.A.e.e.j J c *.I 9 e.l %                         ",
"        [ T h h h h h h 3 $ . . . c.M ' Q h h 3 Q 7 D.e.A.A.e.R [.A.l.].                        ",
"        m.T 1 h h h h h h F.S . . . . t * k.h.1 ( Q K [ Q 3 3 j.n k.%.l                         ",
"        5.T h 1 1 1 h h h B.c.. . . . . . o H.T 1 z.T T z.~ h.j.C.n E l                         ",
"        5.T h h h h h h h 1 A . . + s.q.+ . S C.z.1 ( ( ~ ~ v j.C.n E l                         ",
"        B T ( 1 h 1 h h h h % . + a h h [ &.. &.B.( ~ ~ ~ ~ x.i C.k.E l                         ",
"        Y T 1 1 h 1 h h h h 1 *.* B.i.i.6 m.M . j ( ~ ~ z.v T j.J j 4.l                         ",
"        $.T 1 1 1 h h h h h 1 l.c.` h i.h h ` . o.~ ( ~ ~ h.x.j.Z k.E l                         ",
"        Y T 1 1 1 1 h h h h h x.` k a i.h h ` . p.~ ~ z.~ x.T j.J k.4.l                         ",
"        $.T ( 1 1 1 1 h h h i.( k.#.$.i.i.h ` o i ( ~ ~ z.x.T B.q.n E l                         ",
"        Y T 1 1 1 1 1 h h h h h Q M *.z.E.u.U u.u.U u.u.U u.U U u.U u.U U U U U u.u.d f )       ",
"        $.T ( 1 1 1 h 1 h 1 h h z.c }.].U x _ ] _ ] _ _ ] ] :.:.] :.:.:.:.:.:.:.] ] N ..P ].].% ",
"        l.T ( 1 1 1 1 1 h h h 1 1 v.0 C.L ;.b - - - ..- W W W W w.W w.w.w.w.w.W W w.^ | b.7 5.% ",
"        Y T ( 1 1 ( 1 1 ( 1 1 h h B.I I L t.- (.^ (.O ) O (.0.(.) (.) ) ) ) ) O (.0.5 /.X D.$.].",
"        Y T ( ( ( ( ( 1 ( ( ( x.B.m F.o x t.- (.(.(.(.(.0.O O (.0.(.(.1.(.1.(.(.(.(.5 , X D.E ].",
"        l.T ( ( 1 ( ( ( 1 1 m.I 9 9 M . _ u 1.n._._._._._._._.n._._._._._._._.n._._.y 2 ; C 7 % ",
"        l.T ( ( ( ( ( ( ( v.k.@ . . . . W +.a././.G./.2 G./.g /.G.G.2 g 2 /.2 G.G.g b.g.; D.E ].",
"        l.'.( ~ ( ( ( ~ 3 A.= p } ' . . D | b.; ; X ; ; ; ; ; ; ; ; ; ; ; ; ; ; ; ; X ; ; D.7 % ",
"        l.a ( ( ~ ~ ( ~ = A.h.: s.S . . . C.v.$.%.%.E %.E E 4.4.Z 8.~.e.D.D.C C C D.D.D.o.D.E ].",
"        l.T ~ ~ ( ( ~ ~ j.M 8 S S . . . . j 3.m.m.m.m.v.v.5.# $.F.j { 4.%.%.E 7 E %.%.%.E 7 l.% ",
"        Y T ~ ~ ~ ~ ~ ~ ~ o.0 . . . . . G m 3 = i i i H B.Q Q 2.V C.o.[ w w l w w w w w l ].].% ",
"        l.T ~ z.z.z.~ ~ z.z.o.#.$ $ #.^.m T T a 3 3 3 = = = j.4 J.C.E l                         ",
"        %.T ~ ~ ~ z.z.z.z.z.z.a % l B.T x.T T a 3 3 = = j.j.B.9.' r E l                         ",
"        E T ~ z.z.z.h.z.h.x.x.x.x.x.T x.T a a a 3 = = j.j.B.B.4 ' F.E l                         ",
"        %.'.~ z.z.v x.v h.x.x.T T T T T '.a 3 3 = = = j.j.B.y.Q ' ).4.l                         ",
"        $.T z.z.z.z.h.x.> T T T a T a a a 3 3 = = = j.j.B.B.y.Q ' r E l                         ",
"        $.T ~ x.h.v x.x.T T T T a a a a 3 3 3 = j.j.B.B.B.y.Q m ` r 4.l                         ",
"        E a z.z.v T T T T a a a a a a a a 3 3 3 = j.j.j.B.B.H Q ' F.E l                         ",
"        l.'.z.x.T '.a a a a a ,.,.a a ,.a a = = !.= = j.= B.-.Q ' r 4.l                         ",
"        E 3 B.y.B.B.-.-.-.-.-.B.B.y.y.B.B.B.B.y.B.-.y.y.y.9.Q m ` F.E l                         ",
"        k.A.k.A.A.j q.C.C.C.q.q.Z Z ).c s.A A A s.V A *.r.! r.*.$ F.E l                         ",
"        p.v.D.6.A.A.A.A.A.A.F F F F A.F ~.j k.k.k.k.n j j j n j C.{ E l                         ",
"          l B E E E E E E E E E E E E E %.E E E E E E E E E E E E E Y l                         ",
"          ].l l l l l l l 3.3.l l l 3.l l 3.l l l 3.l 3.l 3.3.3.l 3.l %                         ",
"                                                                                                ",
"                                                                                                "};
