/* XPM */
static char * big_adjust_constant_xpm[] = {
"48 48 256 2",
"  	c None",
". 	c #020202",
"+ 	c #9A9A96",
"@ 	c #828282",
"# 	c #5E5E5E",
"$ 	c #E24232",
"% 	c #121212",
"& 	c #EAEAEA",
"* 	c #D6D6D6",
"= 	c #2A2A28",
"- 	c #2A0E72",
"; 	c #BEBEBA",
"> 	c #6A3A36",
", 	c #52524E",
"' 	c #2E1276",
") 	c #462E82",
"! 	c #A6A6A6",
"~ 	c #4E4E4A",
"{ 	c #726E6E",
"] 	c #969692",
"^ 	c #2E1272",
"/ 	c #4A327E",
"( 	c #424242",
"_ 	c #AE8682",
": 	c #92928E",
"< 	c #AEAEAE",
"[ 	c #3E3E3E",
"} 	c #6E4E4A",
"| 	c #B27E76",
"1 	c #D2D2D2",
"2 	c #46327A",
"3 	c #8E8E8A",
"4 	c #6E5E96",
"5 	c #8276A2",
"6 	c #EEEEEE",
"7 	c #3A3A36",
"8 	c #1E1E1E",
"9 	c #7A6E9E",
"0 	c #BABAB6",
"a 	c #0E0E0E",
"b 	c #CECECE",
"c 	c #363636",
"d 	c #F2F2F2",
"e 	c #8A8A86",
"f 	c #3A227A",
"g 	c #767676",
"h 	c #6A5E8A",
"i 	c #422A76",
"j 	c #666666",
"k 	c #DE5246",
"l 	c #DADADA",
"m 	c #624E86",
"n 	c #CACACA",
"o 	c #B2B2B2",
"p 	c #9A7E7A",
"q 	c #2E2E2A",
"r 	c #0A0A0A",
"s 	c #665E82",
"t 	c #4A3282",
"u 	c #9E9E9A",
"v 	c #F6F6F6",
"w 	c #C6C6C6",
"x 	c #52427A",
"y 	c #827E8E",
"z 	c #8A8686",
"A 	c #E2E2E2",
"B 	c #FE5242",
"C 	c #863A32",
"D 	c #EE422E",
"E 	c #7E7E7A",
"F 	c #161616",
"G 	c #FAFAFA",
"H 	c #5E527E",
"I 	c #4A367E",
"J 	c #523E82",
"K 	c #322E2A",
"L 	c #321A76",
"M 	c #060606",
"N 	c #766E8A",
"O 	c #868686",
"P 	c #A69EB2",
"Q 	c #262626",
"R 	c #AAA6B6",
"S 	c #B6B6B2",
"T 	c #A2A29E",
"U 	c #56427E",
"V 	c #32322E",
"W 	c #AAAAA6",
"X 	c #565656",
"Y 	c #8A869A",
"Z 	c #726696",
"` 	c #FE3E29",
" .	c #FEFEFE",
"..	c #968A8A",
"+.	c #665692",
"@.	c #E6E6E6",
"#.	c #4A4A4A",
"$.	c #82769E",
"%.	c #B2AEBA",
"&.	c #1E1A16",
"*.	c #3A3632",
"=.	c #7E7A8A",
"-.	c #9E9AAE",
";.	c #7A7286",
">.	c #1A1A1A",
",.	c #7E7A77",
"'.	c #625E5A",
").	c #36322E",
"!.	c #5A468A",
"~.	c #4E3682",
"{.	c #FA4632",
"].	c #6A6A66",
"^.	c #3E3A36",
"/.	c #9A9696",
"(.	c #363232",
"_.	c #863E36",
":.	c #423E3A",
"<.	c #8A8692",
"[.	c #7A7A7A",
"}.	c #86827E",
"|.	c #2E0E72",
"1.	c #8E8A8A",
"2.	c #BA827E",
"3.	c #969292",
"4.	c #524E4A",
"5.	c #BE7E76",
"6.	c #86828E",
"7.	c #46423E",
"8.	c #AEAAA6",
"9.	c #321672",
"0.	c #26221E",
"a.	c #0A0606",
"b.	c #626262",
"c.	c #C6C2BE",
"d.	c #5A5654",
"e.	c #8A7EA6",
"f.	c #BEBEBE",
"g.	c #EAE6E2",
"h.	c #42267E",
"i.	c #2A2622",
"j.	c #B6B2BA",
"k.	c #D6D2CE",
"l.	c #464646",
"m.	c #E2DEDE",
"n.	c #BAB6B6",
"o.	c #A2A2AA",
"p.	c #9A96A2",
"q.	c #928E8C",
"r.	c #5A5A56",
"s.	c #9E9A9A",
"t.	c #AAA6A2",
"u.	c #827E81",
"v.	c #22221E",
"w.	c #DEDEDD",
"x.	c #827A9E",
"y.	c #8E423A",
"z.	c #A6A2A2",
"A.	c #CAC6C2",
"B.	c #E6E2DE",
"C.	c #62528A",
"D.	c #867E98",
"E.	c #766A8E",
"F.	c #EEEAE7",
"G.	c #AAA6AE",
"H.	c #8A8A8A",
"I.	c #F2EEEE",
"J.	c #BEBAB8",
"K.	c #6E6282",
"L.	c #A29EA0",
"M.	c #727272",
"N.	c #FE5642",
"O.	c #361E76",
"P.	c #6E6A66",
"Q.	c #B6B2B0",
"R.	c #AEAAB2",
"S.	c #161212",
"T.	c #766A96",
"U.	c #120E0C",
"V.	c #969696",
"W.	c #3E2676",
"X.	c #56428A",
"Y.	c #6A5A92",
"Z.	c #2E2A26",
"`.	c #0E0A06",
" +	c #867AA2",
".+	c #FE422A",
"++	c #4E3A86",
"@+	c #929292",
"#+	c #8E8E8E",
"$+	c #BABABE",
"%+	c #3A3636",
"&+	c #7A7674",
"*+	c #6E6288",
"=+	c #AEAAB6",
"-+	c #56467E",
";+	c #D2CECE",
">+	c #B6B6B6",
",+	c #3E267E",
"'+	c #AAAAAA",
")+	c #A2A2A2",
"!+	c #B2AEAE",
"~+	c #6A6664",
"{+	c #FEFAFA",
"]+	c #361A76",
"^+	c #665292",
"/+	c #7A728E",
"(+	c #86423A",
"_+	c #B68682",
":+	c #FAF6F2",
"<+	c #767272",
"[+	c #1A1612",
"}+	c #4A4642",
"|+	c #524E4E",
"1+	c #5E5A57",
"2+	c #F6F2EE",
"3+	c #6A5692",
"4+	c #928E92",
"5+	c #DAD6D6",
"6+	c #565250",
"7+	c #4E4A48",
"8+	c #66625E",
"9+	c #523A86",
"0+	c #2E2E2E",
"a+	c #2E2A2A",
"b+	c #323232",
"c+	c #CAC6C6",
"d+	c #221E1E",
"e+	c #6A5E82",
"f+	c #8E8696",
"g+	c #766692",
"h+	c #867A9E",
"i+	c #7A6A9A",
"j+	c #1E1A1A",
"k+	c #9A9A9A",
"l+	c #4E4E4E",
"m+	c #3A3A3A",
"n+	c #BABABA",
"o+	c #9E9E9E",
"p+	c #7E7E7E",
"q+	c #523E86",
"r+	c #6A6A6A",
"s+	c #3E3A3A",
"t+	c #423E3E",
"u+	c #BEBEC2",
"v+	c #AAA6A6",
"w+	c #929296",
"x+	c #8E8E92",
"y+	c #B6B6BA",
"z+	c #EAE6E6",
"A+	c #D6D2D2",
"B+	c #625E5E",
"C+	c #2A2626",
"D+	c #4A4646",
"E+	c #868282",
"F+	c #AEAAAA",
"G+	c #222222",
"                    $+P  ++.q+) h.,+h.) q++. +P $+                                              ",
"                %.5 9+L - - - - - - - - - - - L ++$.%.                                          ",
"        $.^+y+9 h.- ^ h.!.g+D.Y f+H.<.=.9 e+J f - - ,+i+j.^+$.                                  ",
"      %.9.- ^ - ^ 9+5 V.k+V.3.: @+4+q.3.3.q.: 6.*+2 ^ - ^ - 9.=+f.                              ",
"       +^ - - - C.L./.4+@+V.L.z.< !+o o o < F+! u w+-+- - |.^ Z W n+                            ",
"    j.+.|.|.|.- - K.@+u G.o >+f.J.f.f.f.f.f.f.; n.h+^ - |.- - U 4+Q.f.                          ",
"    R I - - - 9.2 z /.!+n+f.                      u+X.L - - - W.=.'+;                           ",
"    e.9.- - O.H =.H.] '+V.r+[ Q >.>.>.Q [ r+k+n+    %.Z O.- - 9.e+o+y+f.                        ",
"  u+Y.' ' / s u.z #+M.(.a . . . G  . .[+`.. a c O f.  R.E.) ^ ^ U 3.o f.                        ",
"  R ~.]+J E.z e @ c M . . d+K ).@. .& (.(.).).i.a.[ '+J.Q.D.I 9.i y '+f.                        ",
"  -.' 4 u 3 3 g % . . i.).*.(.).1. .e ).(.).).).).K G++ ; o o.m ^ ;.L.n+                        ",
"u+^+$.G.k+4+&+j+. `.K (.).(.).*.:.v :.*.).(.(.(.(.).*.l.V.f.0 o.*+x k+o f.                      ",
"    n+< k+p+Q w.E+(.).*.).*.).).t+/.).*.).).*.).(.).q.@.8+k+n+$+o )+k+< f.                      ",
"    f.F+V.8 b  .6 ^.*.(.^.d.] n A @.m.w /.d.*.*.).^.6  .w.,.)+; u+>+F+< J.                      ",
"    u+0 [ . q W 6 1.*.7+] m.G G d 6 & & & * j }+(.1.I.W |+}+z.F+f.f.J.f.f.                      ",
"      O . . a+(.'.+ d.< v G & n '+V.#+: #+b+} O 4.+ # (.*.%+&+o+o f.                            ",
"    f.c . 0.(.).).~ < G v 1 ! O p+@ p+E c y.D k ..:.(.).*.c 4.0 o+>+                            ",
"    V.a . K *.(.s+3.2+2+w @+u.@ @ p+p+c _.` B _ w 1+*.(.).).:.z.u < f.                          ",
"    r+. &.).).).d.A G b V.@ p+p+@ p+[ _.` B _+w '+c *.).(.*.^.u.S s.>+                          ",
"    [ . C+).*.*.V.v w.o+@ p+@ @ p+l.C ` N.2.n '+g = 0.(.*.).*.P.k.@+o f.                        ",
"    Q . K ).).).n v u+O @ p+p+p+#.> ` B 5.n o p+&+= % ).).).*.B+B.1.! ;                         ",
"    >. .@.e :.(.w.& T p+p+@ @ @ , $ {.| c.o p+@ g 0+a.).:.1.@. .g.H.o+y+                        ",
"    .  . . .G ] @.l x+@ p+p+p+p+@ p u.; n+@ p+@ M.Q a./.G  . . .:+e k+n+                        ",
"    j+G z+e :.t+w.1 e p+@ @ @ @ p+p+V.1 @ p+@ p+# F M :.:.1.z+ .& z /.>+                        ",
"    Q a.).).).(.w 1 e p+p+p+p+@ @ @ @ p+@ p+p+[.( r a ).).c ^.u.B.O 3.>+                        ",
"    [ . K (.(.).q.1 H.@ @ @ @ p+p+p+p+@ p+@ p+# 8 . >.).c ).:.8.k.e V.n.                        ",
"    r+. K *.c ).l+>+@+p+p+p+@ @ @ @ p+@ p+p+r+b+M a.Z.).).).4.A+J.e k+n+                        ",
"    /.`.Z.).).c *.].: @ @ @ p+p+p+p+@ p+p+r+m+r . >.V (.*.^.&+F.s.H.o+>+                        ",
"    $+c &.).).).).s+X b.g p+@ @ @ p+p+[.# = r . S.a+).).*.}+A.c.s+V >.M '+    #+. . . . . . #+  ",
"      O . K (.*.1++ :.c b+, j { M.r+X b+% M . % Z.).*.*.^.}.I.{ c = @+f.          p+. m+@+      ",
"      f.s+0.|+'+I.1.*.).Q a % % % % r M . M &.K ).).(.%+'.B.0 7 (.v.k+            )+m+o         ",
"        ! j+l  .6 7 ).(.(.q >.a r M r a [+C+K ).(.(.*.7+;+F.,.(.a+S.l+            r+<           ",
"          : ^.@.: (.).).).).).).).).).c *.*.(.*.*.*.4.;+2+)+H.l+8 r . O         p+)+            ",
"          f.q.#.).*.c (.(.(.).(.(.(.(.).).).*.).*.1+;+2+L.O z O a . . . '+    V.O               ",
"            J.3.B+*.*.*.*.c ).).).).(.(.(.).*.7.u.B.F.T z e 3.< M.. . . #   < r.                ",
"              ; T /.~+7.*.).*.*.*.*.*.*.^.D+<+c.2+k.3.O z V.< n+>+m+. . . O l+                  ",
"                n+< s.!+s.<+'.6+4.6+B+&+t.5+g.5+W e z #+V.'+f.    @+. . . . )+                  ",
"                  0 o L.s.n.1 A g.F.F.B.k.1.'.1.z 1.: u o f.        j . . . r+                  ",
"                    ; S W s.3.3 1.z c c c b+b+K = G+'+n.f.          < . . . . V.                ",
"                        ; >+< ! u + Q C+i.Q v.>.% a.f.              >+l+. . . m+                ",
"                            f.$+n+n.0 n+>+M M $+u+                  j ! l+. . . g               ",
"                                          . .                     p+o+  ! . . . . )+            ",
"                                          . .                   o+p+      p+. . . l+            ",
"                                                              < r.          m+. . . O           ",
"                                    . . . . . . . .         o l+            )+. . . . '+        ",
"                                    . . . . . . . .       < m+x+              O . . . m+<       ",
"                                                      >+#+m+. # >+            O . . . . m+)+    ",
"                                                      . . . . . . .       '+. . . . . . . . r+  "};
