/* XPM */
static char * big_adjust_album_xpm[] = {
"48 48 256 2",
"  	c None",
". 	c #020202",
"+ 	c #424242",
"@ 	c #9E9E9A",
"# 	c #DEDEDE",
"$ 	c #565A62",
"% 	c #CECECE",
"& 	c #121212",
"* 	c #727272",
"= 	c #FE422A",
"- 	c #FE3E29",
"; 	c #C2C2BE",
"> 	c #2A0E72",
", 	c #1A1A1A",
"' 	c #E24232",
") 	c #8A929A",
"! 	c #462E82",
"~ 	c #BABABA",
"{ 	c #F6F6F6",
"] 	c #222221",
"^ 	c #DE5246",
"/ 	c #7E7E7A",
"( 	c #3E267E",
"_ 	c #161616",
": 	c #B6B6B2",
"< 	c #6A3A36",
"[ 	c #B27E76",
"} 	c #5A4692",
"| 	c #36322E",
"1 	c #AAAAA6",
"2 	c #361A76",
"3 	c #261646",
"4 	c #EAEAEA",
"5 	c #86423A",
"6 	c #8E8E8A",
"7 	c #6E5E96",
"8 	c #5A468A",
"9 	c #3E3E3E",
"0 	c #9A7E7A",
"a 	c #2A0E6E",
"b 	c #8A8A86",
"c 	c #666A6A",
"d 	c #82769F",
"e 	c #DADADA",
"f 	c #3E2A72",
"g 	c #4A4A4A",
"h 	c #6A5A92",
"i 	c #B2B2AE",
"j 	c #3A3A38",
"k 	c #0E0E0E",
"l 	c #E2E2E2",
"m 	c #8A7EA6",
"n 	c #96A2AE",
"o 	c #1E0A52",
"p 	c #82827E",
"q 	c #46327A",
"r 	c #969692",
"s 	c #7E729A",
"t 	c #D2D2D2",
"u 	c #6E4E4A",
"v 	c #2A2A29",
"w 	c #F2F2F2",
"x 	c #7A7A7A",
"y 	c #4E3E7A",
"z 	c #32363A",
"A 	c #9686B2",
"B 	c #665E82",
"C 	c #56427E",
"D 	c #FEFEFE",
"E 	c #4A565E",
"F 	c #5E5E5E",
"G 	c #C6C6C6",
"H 	c #8A8686",
"I 	c #A6A2A2",
"J 	c #0A0A0A",
"K 	c #B2AEAE",
"L 	c #2E126E",
"M 	c #9E92BE",
"N 	c #4A3282",
"O 	c #AEAEAA",
"P 	c #868682",
"Q 	c #4A327E",
"R 	c #9E96AE",
"S 	c #5A4E72",
"T 	c #FE5242",
"U 	c #5E4A8E",
"V 	c #863A32",
"W 	c #D6D6D6",
"X 	c #E6E6E6",
"Y 	c #5E527E",
"Z 	c #BEBEBA",
"` 	c #867E9A",
" .	c #9A9A96",
"..	c #666666",
"+.	c #4E4E4E",
"@.	c #766E8A",
"#.	c #7E728E",
"$.	c #0A0606",
"%.	c #AAA6B6",
"&.	c #766A96",
"*.	c #AE8682",
"=.	c #F2EEEE",
"-.	c #FAFAFA",
";.	c #7A7675",
">.	c #FA4632",
",.	c #CACACA",
"'.	c #AAA6A2",
").	c #EEEEEE",
"!.	c #4E3682",
"~.	c #665292",
"{.	c #322E2A",
"].	c #726E6E",
"^.	c #A69EB2",
"/.	c #8C8698",
"(.	c #62528A",
"_.	c #363636",
":.	c #060606",
"<.	c #827E86",
"[.	c #565656",
"}.	c #626262",
"|.	c #9A96A2",
"1.	c #767676",
"2.	c #72668A",
"3.	c #9EA2A2",
"4.	c #968A8A",
"5.	c #2E2E2D",
"6.	c #525251",
"7.	c #6A6E6A",
"8.	c #4A4643",
"9.	c #969292",
"0.	c #86827E",
"a.	c #262626",
"b.	c #A6A6A2",
"c.	c #523E84",
"d.	c #D6D2D2",
"e.	c #EEEAE6",
"f.	c #AEAAA9",
"g.	c #9A9696",
"h.	c #462E7E",
"i.	c #3A3632",
"j.	c #DEDAD9",
"k.	c #2E0E72",
"l.	c #423E3A",
"m.	c #9E9A9A",
"n.	c #B2AEBA",
"o.	c #7A7686",
"p.	c #323232",
"q.	c #A29E9F",
"r.	c #464645",
"s.	c #B68682",
"t.	c #D2CECE",
"u.	c #8E869E",
"v.	c #B6B2B1",
"w.	c #321675",
"x.	c #AAAAAA",
"y.	c #8A8692",
"z.	c #CAC6C5",
"A.	c #BE7E76",
"B.	c #8E8A8A",
"C.	c #1A1612",
"D.	c #EE422E",
"E.	c #DEDAE6",
"F.	c #5A5A59",
"G.	c #92928E",
"H.	c #EAE6E4",
"I.	c #C2BEBF",
"J.	c #363232",
"K.	c #7E7A78",
"L.	c #E6E2DF",
"M.	c #1E1A18",
"N.	c #857AA1",
"O.	c #524E4A",
"P.	c #7E7E7E",
"Q.	c #7E6AA6",
"R.	c #EEEAF2",
"S.	c #F6F2EE",
"T.	c #6E6A66",
"U.	c #DAD6D6",
"V.	c #A29EAA",
"W.	c #767272",
"X.	c #827E81",
"Y.	c #381E7A",
"Z.	c #666261",
"`.	c #C6C2C1",
" +	c #928E8E",
".+	c #8A8A8A",
"++	c #AAA6AE",
"@+	c #2E2A27",
"#+	c #625E5B",
"$+	c #523A86",
"%+	c #B6B6B6",
"&+	c #0F0E13",
"*+	c #6A6E76",
"=+	c #2A2625",
"-+	c #2E1272",
";+	c #E2DEDE",
">+	c #8E423A",
",+	c #6E6282",
"'+	c #6A6666",
")+	c #BABAC2",
"!+	c #FE5642",
"~+	c #3E3A36",
"{+	c #B6B2BA",
"]+	c #26221E",
"^+	c #5E5A57",
"/+	c #969696",
"(+	c #1E1E1E",
"_+	c #929292",
":+	c #665692",
"<+	c #161212",
"[+	c #120E0C",
"}+	c #4E4A48",
"|+	c #828282",
"1+	c #BEBEBE",
"2+	c #3A3636",
"3+	c #0E0A06",
"4+	c #46423E",
"5+	c #42267E",
"6+	c #565250",
"7+	c #82769A",
"8+	c #7A6E9C",
"9+	c #8E8E8E",
"0+	c #5A5654",
"a+	c #62666E",
"b+	c #AAA6A6",
"c+	c #2E1276",
"d+	c #E6E2E6",
"e+	c #FAF6F2",
"f+	c #6A6A6A",
"g+	c #FEFAFA",
"h+	c #CECAC6",
"i+	c #A2A2A1",
"j+	c #BAB6B6",
"k+	c #827E8E",
"l+	c #6E5E92",
"m+	c #9A8ABA",
"n+	c #4E367E",
"o+	c #9E9AAE",
"p+	c #863E36",
"q+	c #BA827E",
"r+	c #9A9A9A",
"s+	c #C2C2C2",
"t+	c #9E9E9E",
"u+	c #BAB6B2",
"v+	c #524E4E",
"w+	c #6E6E6D",
"x+	c #EEEAEA",
"y+	c #8676A2",
"z+	c #6A5692",
"A+	c #BABABE",
"B+	c #422A7A",
"C+	c #B2B2B2",
"D+	c #AEAEAE",
"E+	c #868686",
"F+	c #868282",
"G+	c #A6A6A6",
"                    A+^.N.:+c.! 5+( 5+! !.:+m %.I.s+~ %+%+%+i+P.G+1+                            ",
"                n.d $+2 k.> > > > > > > > k.> 2 } M # { S.w e t+b D+1+                          ",
"        d ~.%+8+( > c+( 8 2.m y./..+y.k+#.8+U ( k.k.! m+R.Q.A 1+i 6 D+1+                        ",
"      n.w.> c+> -+$+7+|.m.g.G._+_+ + +_+r f.K V.N.$+c+> c+> 2 )+W G+F+x.1+                      ",
"      N.-+> > > (.t+/+ +G./+q.I D+K K D+%+e e % s+D+(.> > > c+s t.,.G+b K                       ",
"    {+z+k.k.k.k.> ,+_+t+G+C+%+1+A+1+s+s+,.).w { # S k.> > k.k.c.<.9+|+}..+%+                    ",
"    %.!.> > > w.q H g.K A+;             s+w { { w r.o a > > a f o. .%+G+E+x.                    ",
"    m w.> > Y.Y K..+.+D+m.f++ a., _ , a._.g i+w -._+& 3 w.> > w.2.%+W 1+E+b+                    ",
"  1+h c+-+q h X.H 9+* 9 & . . . D D D C.3+. J j D+% +.P.7+( L -+C r+%+I.Z %+%+%+i+P.G+1+        ",
"  %.!.2 c.@.E+b |+_.:.. . (+{.| X D X | | J.J.=+:.g x * l R n+w.h.|.t ).w { S.w e t+b D+1+      ",
"  o+-+l+m.6 9+1._ . . =+| i.J.| B.D b _.| | J.J.J.{.(+O.e 4 ++l+k.u.,.w -.D D -.l 1+i 6 D+1+    ",
"1+:+s ++r+9.x M.. 3+{.| | J.| J.l.-.l.| i.J.| J.J.J.i.r.K.l 1+,.N.(.1+X D D -.D L.t j.G+F+x.1+  ",
"    A+D+r+/ a.# F+J.J.i.| i.i.| l.g.| | i.| i.i.| |  +X Z.q.s+).l % 1+U.).{ -.-.l e ).% G+b K   ",
"    Z D+r , % D ).~+i.| ~+0+9.,.;+X l z.9.0+i.| | ~+).D # x b+4 { 4 ,.* ..1.D+X # x.G+ .|+}..+%+",
"    1+j+9 . @+1 ).B.i.}+r l -.-.w x+4 ).4 U.'+8.J.B.w 1 6.r.I t w { 4 r.. . ] * t W C+D+~ G+E+x.",
"      .+:.. {.J.#+ .0+D+{ -.4 % x./+9+9+9+p.u P 6. .^+| | ~+;.: # { -._+k & p.] w+e l l l ; E+b+",
"    ~ _.. ]+| | J.+.O -.{ t i+E+|+|+P./ z >+D.^ 4.l.| | | i.O.`.; 4 -.t +..+e .+@+r+4 ).X Z E+G+",
"    r+J . {.i.J.~+9.S.S.G _+|+X.P.P.P._.p+- T *.G F i.i.J.| l.I K W w )..+* { 4 r.P.l 4 X 1+P x.",
"    f+. C.J.| | 0+l -.% /+P.|+|+|+p 9 p+- T s.G 1 _.| | i.J.~+p `.s+4 { 1+F.l -.[._+X 4 d+1+|+G+",
"    9 . @+| i.i.g.{ # t+p |+P.P.P.+ V - !+q+,.x.* v ]+i.| | i.T.j.K e { 4 1./+4 }.D+4 X l %+|+1 ",
"    a.. {.| | | ,.{ 1+E+P.|+|+|++.< - T A.G i p 1.5.[+J.J.i.i.#+X b+,.w w D+c ,.x G 4 X l %+P.G+",
"    , g+X b l.J.# 4 t+P.|+P.P.P.+.' >.[ s+v.P.P.1.5.J | l.H H.D e.i+s+X l %+6.G+% # l l # : x 1 ",
"    :.D D D -.r X e 9+P.|+|+|+p p 0 X.Z ~ |+|+|+w+]+$.g.-.D D D e+t+{+C+a+v & }.# X l # e C+x G+",
"    , -.H.B.l.l.# t .+|+P.P.P.P.P.X./+t |+P.P.P.F _ J l.l.b 4 g+x+m.O 3.n z . 9 W X # e W C+P.1 ",
"    a.$.p.| J.J.,.t E+|+|+|+|+|+p p |+P.|+|+X.x + :.k J.J.| ~+X.H.r+G+*+E &+. + t # # e W K x G+",
"    9 . {.| | | 6 t 9+P.P.P.P.P.P.P.P.|+P.P.P.}.(+. M.| | J.l.f.U.m.K /+~+v r.i+e # W t t i x b+",
"    f+. {.i._.| +.C+/+|+|+|+|+|+|+|+P.|+|+P.f+p.:.:.@+i.i._.O.W ; r+C+W 1+D+s+e # e W t % x.1.G+",
"    g.3+@+| | J.i.f+9+P.P.P.P.P.P.P.|+P.x f+_.J . M.p.| | ~+;.e.f.t+%+W l l # # W W t % ,.1 * G+",
"    A+_.M.| i.| | 9 [...1.P.|+|+|+P.P.x F 5.J . _ @+| | | 8.`.j.g.q.I.W # # e e e W % % ,.G+* G+",
"      E+. {.| i.#+ .l._.p.6...w+* f+[.p.& . . & @+| J.i.~+0.S.b+g.i+,.# j.# # # W t t % ,.G+* G+",
"      1+~+]+O.1 =.6 | J.a.&+& & _ & k :.. :.M.@+| i.J.2+#+L.,.x P  +G+C+C+v.K D+D+x.x.G+I b ].G+",
"        G+, e D ).2+J.| | 5., k :.:.:.k C.v p.J.i.| i.O.t.e.x }.T.E+;.F K._+_+B.P.* x x / x P x.",
"          _+2+X 9.| _.| | | | | J.J.J._.| | | | i.i.O.t.S.m.].w+f+G G 6.;.s+G `.b.X.r G+G+G+b+%+",
"          Z 9.g | i.| | J.| J.J.| i.| | J.J.i.J.i.^+t.S.'.0.* H [.# -.[._+X 4 X ~ P G+          ",
"            ~ G.#+~+i.i.i._.i.| | | J.| i.| i.l.X.L.e.f.G.F+;.C+* /+4 }.C+4 X L.~ |+G+          ",
"              Z I 9.'+4+i.| | i.J.i.i.i.i.}+;.z.S.U.q.G._+6 p G D+f+,.x s+X X l %+P.1           ",
"                ~ O m.v.m.W.#+6+O.6+Z.K.I d.H.U.i r _+g.q.t+F+1+%+[.G+% l l l e C+x G+          ",
"                  ~ i m.m.u+t.H.e.e.H.L.W u+q.9.9.g.m.x.1+1 * c v &+}.# X l # e C+P.1           ",
"                    1+%+1 @ 9+i+q.m.g.g.r  . .m.q.f.j+G ,.G+f+9+z . 9 t X # # W i x G+          ",
"                        1+%+x.; %+i f.b+'.1 K ~ s+,.% % ,.x.F $ & . + t # # W W K P.1           ",
"                            j+# e W t t d.W t W W t % % ,.G+c g v g 3.# e e W t D+;.G+          ",
"                            G+j+%+C+C+C+C+K O O x.O D+G+G+9+1.G+D+s+e # e W t % x.1.G+          ",
"                            t+9+6 b H E+b H E+|+P.P..+E+E+P _+1+# # e e W t t % G+* G+          ",
"                            ~ D+G+G+x.x.G+x.G+b+x.G+s+s+I.1+1+% # # e W W % ,.,.G+* G+          ",
"                                                  A+d+X # # # # j.# e W W t % % b+* G+          ",
"                                                  '.~ %+v.{+C+C+C+K D+f.x.x.I I .+].G+          ",
"                                                  @ 9+6 b E+H H E+E+|+|+|+|+x / x P x.          ",
"                                                  ~ D+G+G+x.1 x.b+b+x.b+b+G+1 G+b.++v.          "};
