/* XPM */
static char * mp3gain_new_xpm[] = {
"32 32 10 1",
" 	c None",
".	c #333333",
"+	c #FFFFFF",
"@	c #666666",
"#	c #000000",
"$	c #CCCCCC",
"%	c #999999",
"&	c #FF3333",
"*	c #FF0000",
"=	c #660000",
"          %@..###..@%           ",
"        %.####$++####.%         ",
"      $.######$+$...###.$       ",
"     %#####...@+@......##$      ",
"    %####......$..........$     ",
"   %#$@#.......@........@$@$    ",
"  $#$+$.....@%$$$%@.....$+$@$   ",
"  .##%$@..@$$$$$$$$$@..@$%..%   ",
" %###..%.%$$$$%@@@@..@.%....@$  ",
" .##....%$$$%@@@@@..&&@......$  ",
"%###...@$$%@@@@@@..*&@%......%$ ",
"@###...$$$@@@@@@..*&@%%......@$ ",
".##...@$$%@@@@@.=*&@%%@##....@$ ",
".##...%$%@@@@@..*&@%%@@##.....$ ",
"#+$@..$$%@@@@@.&&@%%@@@##..@$+$ ",
"#+++$@$$@@@@@@@@@%%@@@@##@$+++$ ",
"#$$@..$$@@@@@@@@@$@@@@.##..@$+$ ",
".##...%$@@@@@@@@@@@@@@.##....@$ ",
".##...@$@@@@@@@@@@@@@.###....%$ ",
"@##....%@@@@@@@@@@@@@####....$+ ",
"%##....@@@@@@@@@@@@@.####...@$$ ",
" .##......@@@@@@@@.#####....%$  ",
" %##...%..#.@@@@..######...@$$  ",
"  .#.%$@..#############....$$   ",
"  $#$+$....###########....$$$   ",
"   %.$@..................$+$    ",
"    $...................$+$     ",
"     $@...............@$+$      ",
"      $%@...........@%$+$       ",
"        $$%@.....@%$$+$         ",
"          $$$$$$$$$+$           ",
"                                "};
